<?xml version="1.0" encoding="UTF-8"?>
<svg viewBox="0 0 339 494" version="1.1" xmlns="http://www.w3.org/2000/svg" xmlns:xlink="http://www.w3.org/1999/xlink">
  <path d="M110.669184,490.400297 C118.932298,483.45478 181.529281,419.228261 201.953203,396.752882 C233.602488,361.86922 264.394279,321.366713 284.896156,287.497564 C313.193422,240.829936 328.94011,203.136851 337.12527,162.634344 C338.996164,153.581761 339.230025,150.850378 338.840256,143.124466 C338.138671,127.360484 335.020515,116.82515 327.53694,104.885105 C316.15567,86.857977 303.605092,76.166564 280.218921,64.6947559 C253.948456,51.8182363 223.156665,44.5605617 168.900749,38.4734797 C157.831295,37.2248475 147.619334,36.8346499 122.752039,36.5224919 C105.212411,36.2883733 89.6995841,35.7420967 88.3743678,35.3518992 C87.0491514,34.9617016 84.9443961,33.4789509 83.5412258,32.0742397 C81.3585166,29.8110938 81.046701,28.9526592 80.2671619,21.3828264 C78.5521761,4.6043312 75.5899278,0.8584346 63.5070729,0.156079 L59.6093778,0 L59.1416544,8.5063069 C58.0502998,26.2212762 52.5155727,41.7511392 43.3949661,52.3645129 C38.5618242,57.9833578 34.5082213,61.3390569 23.0489976,69.377127 C12.2134052,76.946959 4.49596888,84.516792 2.0793979,89.979558 C1.06599717,92.242704 0.364412052,95.832521 0.130550345,99.890576 C-0.181265265,105.58746 -0.02535746,106.367856 1.61167449,108.240804 C3.01484473,109.879634 4.57392278,110.581989 7.84798668,111.128266 C13.6165754,111.986701 16.8126854,111.206305 23.9844445,106.992172 C31.0002957,102.934117 48.3840159,94.583889 48.8517393,95.052126 C49.085601,95.208205 49.7092322,102.543919 50.4108173,111.284345 C51.0344486,119.946731 56.7250834,196.89369 63.0393495,282.112838 C72.7835873,413.375298 74.7324349,437.489507 75.8237895,439.206377 C77.850591,442.249918 81.5144244,443.732668 86.9711975,443.810708 C92.5059246,443.888747 94.8445417,442.718155 97.3390666,438.582061 C98.9760985,435.928717 99.0540524,435.148322 98.9760985,409.86352 C98.8981446,373.809265 96.7933892,320.430239 94.2988644,291.789737 C90.9468466,253.940574 89.4657224,201.73214 89.777538,135.476594 L90.0113997,78.273631 L94.6886339,74.059497 C100.067453,69.299087 98.8201907,69.533206 122.206361,68.128494 C159.234465,65.7873091 214.893551,72.498707 247.088513,83.034041 C262.679293,88.10661 278.971659,97.393312 288.949758,106.680014 C303.605092,120.414968 308.594142,132.667171 307.658695,152.489208 C306.333479,178.788523 299.317628,201.107824 283.18117,230.840878 C262.445432,268.92416 236.330874,303.807822 196.730292,346.495436 C135.77034,412.048626 132.418323,415.638444 118.932298,431.792623 C99.365868,455.126437 91.9602473,466.754325 90.4011692,476.431224 C88.997999,485.249689 92.2720629,491.258732 99.6776836,493.599917 C103.107655,494.69247 106.927397,493.521877 110.669184,490.400297 Z"></path>
</svg>