<?xml version="1.0" encoding="UTF-8"?>
<svg viewBox="0 0 306 519" version="1.1" xmlns="http://www.w3.org/2000/svg" xmlns:xlink="http://www.w3.org/1999/xlink">
  <path d="M30.2877551,419.605209 L30.2877551,518.722502 L15.6122449,518.722502 L0.858673469,518.722502 L0.312244898,259.534683 C0,116.946262 -0.0780612245,0.190772986 0.0780612245,0.0346827607 C0.234183673,-0.121407465 3.27857143,0.268818099 6.94744898,0.815133889 C10.5382653,1.43949479 16.4709184,2.14190081 20.1397959,2.45408126 C28.7265306,3.07844216 36.3765306,4.24911885 38.952551,5.26370532 C40.1234694,5.73197599 41.372449,6.9806978 41.9188776,7.99528426 C42.4653061,9.32205118 42.777551,19.0776903 42.777551,39.1352843 C42.777551,55.2125775 43.0897959,68.4022016 43.4020408,68.4022016 C44.8852041,68.4022016 52.847449,65.3584422 57.6091837,62.9390437 C60.4193878,61.5342316 66.8984694,57.631976 72.1285714,54.3540813 C95.3908163,39.4474647 116.545408,29.6137805 140.510204,22.7458106 C156.356633,18.1411489 162.211224,17.3606978 181.336224,17.4387429 C197.729082,17.4387429 198.978061,17.516788 209.047959,19.8581414 C239.882143,26.9602467 259.319388,34.140397 273.448469,43.6619008 C280.161735,48.1885173 287.343367,55.7588933 289.919388,61.065961 C291.94898,65.2023519 292.183163,66.4510737 292.183163,73.4751339 C292.183163,82.0600963 290.778061,86.5086677 285.469898,95.4058106 C278.990816,106.097991 261.895408,124.438593 245.736735,137.784307 C226.767857,153.627465 213.263265,162.914833 157.527551,198.503405 C72.0505102,253.056938 60.6535714,260.783405 48.7102041,272.099946 L42.8556122,277.641149 L70.7234694,291.767314 C118.106633,315.805209 159.244898,336.87739 183.678061,349.754833 C212.560714,364.97363 255.962755,386.279946 269.545408,391.977239 C275.165816,394.318593 282.503571,397.596487 285.938265,399.15739 C294.368878,403.059645 305.843878,410.630021 305.921939,412.347014 C306.078061,415.000547 305.687755,416.87363 304.048469,421.556337 C301.940816,427.487765 293.197959,437.087314 288.670408,438.414081 C283.284184,440.053029 283.908673,440.287164 248.468878,421.946562 C241.59949,418.434532 230.905102,413.439645 224.660204,410.864156 C218.415306,408.288668 205.691327,402.513329 196.32398,398.064758 C186.956633,393.616187 179.15051,389.948066 178.994388,389.948066 C178.838265,389.948066 161.196429,381.285059 139.807653,370.592878 C63.7760204,332.819044 37.1571429,320.487916 31.4586735,320.487916 C30.4438776,320.487916 30.2877551,331.492277 30.2877551,419.605209 Z M33.722449,219.80972 L33.1760204,236.58942 L35.0494898,234.950472 C37.7035714,232.609119 45.9780612,228.004457 59.6387755,221.136487 C88.1311224,206.854232 140.354082,178.28972 163.772449,164.163555 C185.161224,151.208066 202.178571,139.267164 218.103061,125.999495 C240.272449,107.502803 248.468878,96.1862617 248.468878,84.4014497 C248.390816,80.3431038 248.00051,78.1578407 246.751531,75.8164873 C241.053061,65.280397 228.719388,58.9587429 204.520408,53.9638557 C188.517857,50.685961 154.092857,54.4321264 127.083673,62.3927279 C95.2346939,71.8361865 65.1030612,88.1476151 48.7882653,104.693179 C44.7290816,108.751525 42.777551,111.405059 42.4653061,113.122051 C42.2311224,114.526863 41.2943878,123.892277 40.4357143,133.960096 C39.5770408,144.027916 38.4841837,155.500547 38.0158163,159.324758 C36.2984694,174.77769 34.2688776,203.966562 33.722449,219.80972 Z"></path>
</svg>