<?xml version="1.0" encoding="UTF-8"?>
<svg width="923px" height="527px" viewBox="0 0 923 527" version="1.1" xmlns="http://www.w3.org/2000/svg" xmlns:xlink="http://www.w3.org/1999/xlink">
    <!-- Generator: Sketch 56.2 (81672) - https://sketch.com -->
    <title>Group</title>
    <desc>Created with Sketch.</desc>
    <g id="Page-2" stroke="none" stroke-width="1" fill="none" fill-rule="evenodd">
        <g id="Desktop" transform="translate(-51.000000, -121.000000)" fill="#FFFFFF" fill-rule="nonzero">
            <g id="Group" transform="translate(51.000000, 121.000000)">
                <path d="M110.669184,523.400297 C118.932298,516.45478 181.529281,452.228261 201.953203,429.752882 C233.602488,394.86922 264.394279,354.366713 284.896156,320.497564 C313.193422,273.829936 328.94011,236.136851 337.12527,195.634344 C338.996164,186.581761 339.230025,183.850378 338.840256,176.124466 C338.138671,160.360484 335.020515,149.82515 327.53694,137.885105 C316.15567,119.857977 303.605092,109.166564 280.218921,97.6947559 C253.948456,84.8182363 223.156665,77.5605617 168.900749,71.4734797 C157.831295,70.2248475 147.619334,69.8346499 122.752039,69.5224919 C105.212411,69.2883733 89.6995841,68.7420967 88.3743678,68.3518992 C87.0491514,67.9617016 84.9443961,66.4789509 83.5412258,65.0742397 C81.3585166,62.8110938 81.046701,61.9526592 80.2671619,54.3828264 C78.5521761,37.6043312 75.5899278,33.8584346 63.5070729,33.156079 L59.6093778,33 L59.1416544,41.5063069 C58.0502998,59.2212762 52.5155727,74.7511392 43.3949661,85.3645129 C38.5618242,90.9833578 34.5082213,94.3390569 23.0489976,102.377127 C12.2134052,109.946959 4.49596888,117.516792 2.0793979,122.979558 C1.06599717,125.242704 0.364412052,128.832521 0.130550345,132.890576 C-0.181265265,138.58746 -0.02535746,139.367856 1.61167449,141.240804 C3.01484473,142.879634 4.57392278,143.581989 7.84798668,144.128266 C13.6165754,144.986701 16.8126854,144.206305 23.9844445,139.992172 C31.0002957,135.934117 48.3840159,127.583889 48.8517393,128.052126 C49.085601,128.208205 49.7092322,135.543919 50.4108173,144.284345 C51.0344486,152.946731 56.7250834,229.89369 63.0393495,315.112838 C72.7835873,446.375298 74.7324349,470.489507 75.8237895,472.206377 C77.850591,475.249918 81.5144244,476.732668 86.9711975,476.810708 C92.5059246,476.888747 94.8445417,475.718155 97.3390666,471.582061 C98.9760985,468.928717 99.0540524,468.148322 98.9760985,442.86352 C98.8981446,406.809265 96.7933892,353.430239 94.2988644,324.789737 C90.9468466,286.940574 89.4657224,234.73214 89.777538,168.476594 L90.0113997,111.273631 L94.6886339,107.059497 C100.067453,102.299087 98.8201907,102.533206 122.206361,101.128494 C159.234465,98.7873091 214.893551,105.498707 247.088513,116.034041 C262.679293,121.10661 278.971659,130.393312 288.949758,139.680014 C303.605092,153.414968 308.594142,165.667171 307.658695,185.489208 C306.333479,211.788523 299.317628,234.107824 283.18117,263.840878 C262.445432,301.92416 236.330874,336.807822 196.730292,379.495436 C135.77034,445.048626 132.418323,448.638444 118.932298,464.792623 C99.365868,488.126437 91.9602473,499.754325 90.4011692,509.431224 C88.997999,518.249689 92.2720629,524.258732 99.6776836,526.599917 C103.107655,527.69247 106.927397,526.521877 110.669184,523.400297 Z" id="Path"></path>
                <g id="R" transform="translate(617.000000, 0.000000)">
                    <path d="M30.2877551,419.605209 L30.2877551,518.722502 L15.6122449,518.722502 L0.858673469,518.722502 L0.312244898,259.534683 C0,116.946262 -0.0780612245,0.190772986 0.0780612245,0.0346827607 C0.234183673,-0.121407465 3.27857143,0.268818099 6.94744898,0.815133889 C10.5382653,1.43949479 16.4709184,2.14190081 20.1397959,2.45408126 C28.7265306,3.07844216 36.3765306,4.24911885 38.952551,5.26370532 C40.1234694,5.73197599 41.372449,6.9806978 41.9188776,7.99528426 C42.4653061,9.32205118 42.777551,19.0776903 42.777551,39.1352843 C42.777551,55.2125775 43.0897959,68.4022016 43.4020408,68.4022016 C44.8852041,68.4022016 52.847449,65.3584422 57.6091837,62.9390437 C60.4193878,61.5342316 66.8984694,57.631976 72.1285714,54.3540813 C95.3908163,39.4474647 116.545408,29.6137805 140.510204,22.7458106 C156.356633,18.1411489 162.211224,17.3606978 181.336224,17.4387429 C197.729082,17.4387429 198.978061,17.516788 209.047959,19.8581414 C239.882143,26.9602467 259.319388,34.140397 273.448469,43.6619008 C280.161735,48.1885173 287.343367,55.7588933 289.919388,61.065961 C291.94898,65.2023519 292.183163,66.4510737 292.183163,73.4751339 C292.183163,82.0600963 290.778061,86.5086677 285.469898,95.4058106 C278.990816,106.097991 261.895408,124.438593 245.736735,137.784307 C226.767857,153.627465 213.263265,162.914833 157.527551,198.503405 C72.0505102,253.056938 60.6535714,260.783405 48.7102041,272.099946 L42.8556122,277.641149 L70.7234694,291.767314 C118.106633,315.805209 159.244898,336.87739 183.678061,349.754833 C212.560714,364.97363 255.962755,386.279946 269.545408,391.977239 C275.165816,394.318593 282.503571,397.596487 285.938265,399.15739 C294.368878,403.059645 305.843878,410.630021 305.921939,412.347014 C306.078061,415.000547 305.687755,416.87363 304.048469,421.556337 C301.940816,427.487765 293.197959,437.087314 288.670408,438.414081 C283.284184,440.053029 283.908673,440.287164 248.468878,421.946562 C241.59949,418.434532 230.905102,413.439645 224.660204,410.864156 C218.415306,408.288668 205.691327,402.513329 196.32398,398.064758 C186.956633,393.616187 179.15051,389.948066 178.994388,389.948066 C178.838265,389.948066 161.196429,381.285059 139.807653,370.592878 C63.7760204,332.819044 37.1571429,320.487916 31.4586735,320.487916 C30.4438776,320.487916 30.2877551,331.492277 30.2877551,419.605209 Z M33.722449,219.80972 L33.1760204,236.58942 L35.0494898,234.950472 C37.7035714,232.609119 45.9780612,228.004457 59.6387755,221.136487 C88.1311224,206.854232 140.354082,178.28972 163.772449,164.163555 C185.161224,151.208066 202.178571,139.267164 218.103061,125.999495 C240.272449,107.502803 248.468878,96.1862617 248.468878,84.4014497 C248.390816,80.3431038 248.00051,78.1578407 246.751531,75.8164873 C241.053061,65.280397 228.719388,58.9587429 204.520408,53.9638557 C188.517857,50.685961 154.092857,54.4321264 127.083673,62.3927279 C95.2346939,71.8361865 65.1030612,88.1476151 48.7882653,104.693179 C44.7290816,108.751525 42.777551,111.405059 42.4653061,113.122051 C42.2311224,114.526863 41.2943878,123.892277 40.4357143,133.960096 C39.5770408,144.027916 38.4841837,155.500547 38.0158163,159.324758 C36.2984694,174.77769 34.2688776,203.966562 33.722449,219.80972 Z" id="Combined-Shape"></path>
                </g>
                <g id="&amp;" transform="translate(365.000000, 158.000000)">
                    <path d="M128.794009,291.582493 C120.510306,295.013793 110.038454,294.233952 106.443639,289.944828 C105.193269,288.385146 105.11512,287.293369 105.505861,281.522546 C105.896602,275.361804 106.83438,261.012732 109.413269,219.915119 C110.038454,210.712997 110.351046,203.070557 110.272898,202.914589 C110.116602,202.758621 106.912528,205.877984 103.083269,209.855172 C92.2988241,221.084881 75.1843796,236.603714 66.3536389,243.232361 C56.897713,250.328912 46.89475,255.709814 38.9236389,258.127321 C24.7788241,262.416446 14.3851204,257.893369 8.36771296,244.870027 C5.31993519,238.241379 3.91326852,232.782493 2.11586111,219.915119 C-0.853768519,199.249337 -0.697472222,179.363395 2.58475,166.184085 C5.16363889,155.422281 12.5095648,142.398939 20.4025278,134.600531 C31.577713,123.448806 43.9251204,118.535809 61.117713,118.535809 C68.1510463,118.535809 71.1988241,118.925729 76.6691944,120.485411 C91.6736389,124.85252 99.097713,130.935279 103.630306,142.476923 C105.11512,146.142175 105.11512,145.440318 105.193269,77.7501326 L105.193269,9.2801061 L107.22512,7.40848806 C110.741787,4.1331565 119.416231,1.48169761 129.575491,0.467904509 L134.029935,2.84217094e-14 L133.639194,23.1612732 C132.857713,70.0297082 131.998083,132.962865 132.15438,133.196817 C132.232528,133.274801 135.749194,130.467374 140.047343,126.95809 C164.585861,106.448276 189.749565,92.801061 202.800306,92.801061 C206.629565,92.801061 207.879935,93.1129973 209.208454,94.4387268 C211.865491,97.0901857 211.005861,102.783024 206.707713,109.879576 C201.159194,119.237666 176.073639,144.192573 152.707343,163.61061 C149.03438,166.729973 145.752157,169.849337 145.439565,170.629178 C143.798454,174.840318 143.251417,186.148011 142.782528,230.832891 L142.313639,280.352785 L140.59438,283.160212 C138.562528,286.35756 134.889565,288.931034 128.794009,291.582493 Z M34.8599352,233.328382 C34.8599352,235.277984 37.2825278,235.122016 40.017713,233.016446 C45.4099352,228.883289 64.6343796,210.167109 71.9803056,201.97878 C81.9051204,190.749072 93.0021574,177.023873 94.6432685,173.904509 L95.8936389,171.487003 L90.9703056,165.950133 C71.9803056,144.660477 49.1610463,137.563926 36.1103056,149.027586 C31.9684537,152.692838 27.4358611,161.349072 24.6225278,170.785146 C22.2780833,179.051459 21.6528981,198.703448 23.4503056,209.933156 C25.0132685,219.603183 28.9206759,228.415385 32.5154907,230.598939 C33.8440093,231.300796 34.8599352,232.548541 34.8599352,233.328382 Z" id="Combined-Shape"></path>
                </g>
            </g>
        </g>
    </g>
</svg>