<?xml version="1.0" encoding="UTF-8"?>
<svg width="594px" height="484px" viewBox="0 0 594 484" version="1.1" xmlns="http://www.w3.org/2000/svg" xmlns:xlink="http://www.w3.org/1999/xlink">
    <!-- Generator: Sketch 56.2 (81672) - https://sketch.com -->
    <title>Group</title>
    <desc>Created with Sketch.</desc>
    <defs>
        <polygon id="path-1" points="0.800152405 0.0816 240.365808 0.0816 240.365808 50.694 0.800152405 50.694"></polygon>
    </defs>
    <g id="Page-2" stroke="none" stroke-width="1" fill="none" fill-rule="evenodd">
        <g id="Desktop-Copy-8" transform="translate(-227.000000, -139.000000)">
            <g id="Group" transform="translate(227.000000, 139.000000)">
                <g id="Group-33" transform="translate(253.000000, 0.000000)">
                    <path d="M21.3594252,229.091635 C23.3144262,228.754513 24.8742673,228.458253 25.997353,228.192642 C27.1308376,227.937246 28.2643222,227.600123 29.3874078,227.181274 C30.5208924,226.752208 31.3528077,226.323143 31.8831537,225.853215 C32.4031008,225.352639 32.891851,224.698825 33.3494044,223.891774 C33.7965589,223.074507 34.0981282,222.13465 34.2229155,221.082418 C34.3581017,220.040403 34.4204954,218.763423 34.4204954,217.251479 L34.4204954,163.434442 C34.4204954,160.134727 33.432596,158.132422 31.4359992,157.42753 C29.4290036,156.681773 26.0701456,156.722637 21.3594252,157.519472 L21.3594252,229.091635 Z M0,247 L0,147.058454 L21.2554358,143.319457 C28.0459444,142.124204 33.6197769,141.736002 38.0081301,142.175283 C42.4068822,142.62478 45.8385328,143.993702 48.3550766,146.302482 C50.8612214,148.631693 52.5978446,151.645365 53.5545472,155.312851 C54.5216487,159.010984 55,163.812428 55,169.778478 L55,202.530456 C55,206.095783 54.8856116,209.211614 54.6672339,211.888164 C54.4384572,214.595361 54.0224995,217.251479 53.3881641,219.897381 C52.7746266,222.553499 51.9115145,224.841847 50.8404235,226.782856 C49.7693326,228.744297 48.3862734,230.613795 46.691246,232.432215 C44.9962186,234.240418 42.9476272,235.803441 40.5662696,237.121284 C38.1641142,238.40848 35.366799,239.593517 32.1327283,240.655964 C28.9194555,241.677548 25.2070335,242.576542 21.0266591,243.312082 L0,247 Z" id="Fill-8" fill="#FFFFFF"></path>
                    <path d="M100.308619,194.666762 L110.640335,192.807314 L105.586778,156.62981 L100.308619,194.666762 Z M75,233 L96.5924686,129.197842 L114.468787,126 L136,222.108947 L116.071632,225.674592 L111.977741,205.026544 L98.9201674,207.355963 L95.0304603,229.424138 L75,233 Z" id="Fill-10" fill="#FFFFFF"></path>
                    <path d="M166.724933,216 L166.724933,182.898986 L148,119.225081 L167,115.79625 L176.30134,158.139755 C177.452547,153.12445 179.174263,145.458198 181.4563,135.212646 C183.748525,124.946623 185.449866,117.311077 186.550134,112.295772 L205,109 L186.224129,179.408743 L186.224129,212.509757 L166.724933,216 Z" id="Fill-12" fill="#FFFFFF"></path>
                    <path d="M223,177.84179 L243.934003,170.256644 C243.934003,172.277988 243.975725,174.054321 244.048739,175.61627 C244.121752,177.1578 244.309501,178.811627 244.643277,180.577752 C244.956192,182.343876 245.394273,183.762901 245.947089,184.855243 C246.489475,185.927168 247.261331,186.7745 248.262659,187.37682 C249.274417,187.999557 250.453063,188.193525 251.819458,187.958722 C255.887351,187.244105 257.931728,184.344803 257.931728,179.240397 C257.931728,172.226944 253.915987,165.979152 245.853214,160.486812 L239.448891,156.280782 C237.414944,154.963845 235.798217,153.851085 234.577849,152.952709 C233.357482,152.074752 231.938934,150.819068 230.290916,149.206076 C228.653328,147.603292 227.370377,146.010718 226.442063,144.418143 C225.513749,142.825569 224.721032,140.834851 224.06391,138.497033 C223.396359,136.11838 223.062583,133.54576 223.062583,130.768963 C223.062583,122.673376 225.691068,115.813055 230.948037,110.157374 C236.205007,104.532319 243.172577,100.969444 251.87161,99.4483315 C259.079082,98.1722302 265.233074,99.6218813 270.291864,103.776867 C275.361085,107.901227 277.895695,113.526282 277.895695,120.631614 L277.833112,121.366648 L277.833112,123.040893 L256.51318,129.635785 C256.51318,129.227433 256.544472,128.584278 256.607055,127.716529 C256.659207,126.838571 256.680068,126.123954 256.680068,125.56247 C256.680068,124.235324 256.596624,122.969432 256.408875,121.78521 C256.221126,120.590779 255.897781,119.426974 255.470131,118.283588 C255.03205,117.140201 254.364498,116.292869 253.457045,115.721176 C252.549592,115.149483 251.45439,115.006559 250.161009,115.220944 C247.908022,115.608879 246.197421,116.772684 245.060497,118.712358 C243.934003,120.662241 243.360326,122.806091 243.360326,125.174535 C243.360326,127.236715 243.683672,129.135554 244.351223,130.840425 C245.008344,132.535088 246.020102,134.035783 247.365636,135.383346 C248.71117,136.710491 249.941969,137.813043 251.068462,138.629748 C252.205386,139.477079 253.717808,140.487751 255.616158,141.651556 C257.504077,142.81536 258.849611,143.683109 259.642329,144.244594 C262.542006,146.245521 264.993173,148.195403 267.006258,150.043198 C269.008913,151.890993 270.896833,154.034843 272.680448,156.515584 C274.464062,158.986117 275.799166,161.732287 276.675327,164.815348 C277.561919,167.867782 278,171.257107 278,174.993532 C278,181.996776 275.454959,188.173107 270.354447,193.522524 C265.253935,198.861732 259.058221,202.179595 251.756875,203.455697 C247.03186,204.28261 242.828371,204.170314 239.167267,203.098388 C235.495733,202.036672 232.543903,200.239921 230.290916,197.708136 C228.04836,195.176351 226.306467,192.246422 225.10696,188.897932 C223.897023,185.56986 223.198179,181.884479 223,177.84179" id="Fill-14" fill="#FFFFFF"></path>
                    <polygon id="Fill-16" fill="#FFFFFF" points="0 376 0 274.666765 20.6776249 271 20.6776249 358.266943 41 354.672684 41 368.759692"></polygon>
                    <polygon id="Fill-18" fill="#FFFFFF" points="63 364 63 264.419671 106 257 106 270.831732 83.8468888 274.648435 83.8468888 301.772472 99.5320921 299.065157 99.5320921 313.222582 83.8468888 315.929896 83.8468888 346.5653 106 342.748597 106 356.590507"></polygon>
                    <polygon id="Fill-20" fill="#FFFFFF" points="128 354 128 254.429849 171 247 171 260.831732 148.851997 264.648435 148.851997 291.772472 164.530507 289.065157 164.530507 303.242937 148.851997 305.940074 148.851997 350.397032"></polygon>
                    <polygon id="Fill-22" fill="#FFFFFF" points="200.187889 342 200.187889 256.445322 185 259.08221 185 243.847998 236 235 236 250.234213 221.11883 252.809299 221.11883 338.353677"></polygon>
                    <polygon id="Fill-24" fill="#FFFFFF" points="341 56.2029586 1 117 1 90.8073373 341 30"></polygon>
                    <polygon id="Fill-26" fill="#FFFFFF" points="270 382.47732 1 431 1 404.533084 270 356"></polygon>
                    <g id="Group-30" transform="translate(99.000000, 0.000000)">
                        <mask id="mask-2" fill="white">
                            <use xlink:href="#path-1"></use>
                        </mask>
                        <g id="Clip-29"></g>
                        <path d="M4.63436,50.694 C2.82266,50.694 1.216835,49.419 0.8668475,47.5932 C0.475685,45.543 1.84475375,43.554 3.934385,43.1766 L235.821691,0.1224 C237.93191,-0.1734 239.887722,1.1118 240.299472,3.1722 C240.690635,5.2224 239.311272,7.2114 237.231935,7.599 L5.334335,50.643 C5.09757875,50.6838 4.8608225,50.694 4.63436,50.694" id="Fill-28" fill="#FFFFFF" mask="url(#mask-2)"></path>
                    </g>
                    <path d="M158.835903,429 C157.011443,429 155.393137,427.650624 155.063292,425.738124 C154.681907,423.602498 156.063137,421.530622 158.155596,421.148122 L233.473825,407.059366 C235.566284,406.687491 237.565974,408.100616 237.937051,410.236242 C238.318435,412.403743 236.926898,414.454369 234.844746,414.847494 L159.51621,428.925625 C159.289441,428.968125 159.052364,429 158.835903,429" id="Fill-31" fill="#FFFFFF"></path>
                </g>
                <g id="Group-7" transform="translate(0.000000, 94.000000)">
                    <path d="M0,390 L0,347.350248 L87.346834,196.680762 C88.6463206,194.323093 92.1665716,188.404862 97.9269823,178.906824 C103.667998,169.447278 107.488876,162.874674 109.350827,159.198635 C111.222476,155.532219 113.840844,149.950799 117.225328,142.44475 C120.609812,134.957948 122.908157,128.077404 124.130063,121.822364 C125.351968,115.548077 125.962921,109.023589 125.962921,102.200783 C125.962921,88.2664782 123.480319,78.1140666 118.524815,71.7435486 C113.559612,65.3730306 105.89846,63.390664 95.560753,65.7868256 C73.6925271,70.6465108 62.763263,91.4902297 62.763263,128.317982 L62.763263,143.031762 L2.36622932,153.723069 L2.36622932,138.595495 C2.36622932,122.370883 4.09241301,107.608987 7.53508272,94.28094 C11.0068454,80.9336463 16.3211637,68.8084912 23.5071306,57.8573591 C30.6930975,46.9158501 40.3713634,37.8123606 52.5128351,30.5372676 C64.6640046,23.2717977 78.9389618,18.1907803 95.3280091,15.2845924 C125.526526,9.94375024 148.35482,13.9662223 163.82259,27.3616317 C179.270964,40.7666643 187,62.2455104 187,91.8174164 C187,101.912089 186.069025,111.60259 184.197376,120.888919 C182.335425,130.175248 179.309755,139.451954 175.149458,148.719037 C170.969766,157.98612 167.081004,165.857848 163.483172,172.324597 C159.895037,178.781723 154.929835,187.20197 148.606959,197.556467 C147.889333,198.682375 147.346264,199.55808 146.98745,200.193207 C146.628637,200.828334 146.163149,201.578939 145.590987,202.464268 C145.009127,203.349597 144.504849,204.18681 144.078152,204.966284 L70.5213919,328.681359 L177.719338,309.685282 L177.719338,358.522712 L0,390 Z" id="Fill-1" fill="#000000"></path>
                    <path d="M26,383 L26,340.350248 L113.346834,189.680762 C114.646321,187.323093 118.166572,181.404862 123.926982,171.906824 C129.667998,162.447278 133.488876,155.874674 135.350827,152.198635 C137.222476,148.532219 139.840844,142.950799 143.225328,135.44475 C146.609812,127.957948 148.908157,121.077404 150.130063,114.822364 C151.351968,108.548077 151.962921,102.023589 151.962921,95.2007834 C151.962921,81.2664782 149.480319,71.1140666 144.524815,64.7435486 C139.559612,58.3730306 131.89846,56.390664 121.560753,58.7868256 C99.6925271,63.6465108 88.763263,84.4902297 88.763263,121.317982 L88.763263,136.031762 L28.3662293,146.723069 L28.3662293,131.595495 C28.3662293,115.370883 30.092413,100.608987 33.5350827,87.28094 C37.0068454,73.9336463 42.3211637,61.8084912 49.5071306,50.8573591 C56.6930975,39.9158501 66.3713634,30.8123606 78.5128351,23.5372676 C90.6640046,16.2717977 104.938962,11.1907803 121.328009,8.28459236 C151.526526,2.94375024 174.35482,6.96622233 189.82259,20.3616317 C205.270964,33.7666643 213,55.2455104 213,84.8174164 C213,94.9120892 212.069025,104.60259 210.197376,113.888919 C208.335425,123.175248 205.309755,132.451954 201.149458,141.719037 C196.969766,150.98612 193.081004,158.857848 189.483172,165.324597 C185.895037,171.781723 180.929835,180.20197 174.606959,190.556467 C173.889333,191.682375 173.346264,192.55808 172.98745,193.193207 C172.628637,193.828334 172.163149,194.578939 171.590987,195.464268 C171.009127,196.349597 170.504849,197.18681 170.078152,197.966284 L96.5213919,321.681359 L203.719338,302.685282 L203.719338,351.522712 L26,383 Z" id="Fill-3" fill="#FFFFFF"></path>
                    <path d="M50,377 L50,334.350724 L137.346834,183.673296 C138.646321,181.315653 142.166572,175.407112 147.926982,165.909179 C153.667998,156.440116 157.488876,149.867586 159.350827,146.201211 C161.222476,142.534836 163.840844,136.943854 167.225328,129.447513 C170.609812,121.951171 172.908157,115.070704 174.130063,108.815733 C175.351968,102.55114 175.962921,96.0171011 175.962921,89.1943718 C175.962921,75.2698451 173.480319,65.1175468 168.524815,58.7470999 C163.559612,52.376653 155.89846,50.3846854 145.560753,52.7904433 C123.692527,57.6500743 112.763263,78.4935606 112.763263,115.320902 L112.763263,130.034518 L52.3662293,140.725706 L52.3662293,125.588677 C52.3662293,109.373869 54.092413,94.6025155 57.5350827,81.2842398 C61.0068454,67.937095 66.3211637,55.8024522 73.5071306,44.8514423 C80.6930975,33.9196784 90.3713634,24.8162905 102.512835,17.5412787 C114.664005,10.2758898 128.938962,5.18530613 145.328009,2.28877363 C175.526526,-3.06163193 198.35482,0.9704183 213.82259,14.3656782 C229.270964,27.7609382 237,49.2491677 237,78.8207437 C237,88.9153038 236.069025,98.5960736 234.197376,107.882299 C232.335425,117.178148 229.309755,126.445127 225.149458,135.712106 C220.969766,144.979086 217.081004,152.850726 213.483172,159.317403 C209.895037,165.78408 204.929835,174.204233 198.606959,184.558615 C197.889333,185.684509 197.346264,186.550582 196.98745,187.185702 C196.628637,187.820822 196.163149,188.581042 195.590987,189.466361 C195.009127,190.35168 194.504849,191.17926 194.078152,191.958726 L120.521392,315.67242 L227.719338,296.686179 L227.719338,345.523064 L50,377 Z" id="Fill-5" fill="#BF393F"></path>
                </g>
            </g>
        </g>
    </g>
</svg>