<?xml version="1.0" encoding="UTF-8"?>
<svg width="608px" height="484px" viewBox="0 0 608 484" version="1.1" xmlns="http://www.w3.org/2000/svg" xmlns:xlink="http://www.w3.org/1999/xlink">
    <!-- Generator: Sketch 56.2 (81672) - https://sketch.com -->
    <title>Group</title>
    <desc>Created with Sketch.</desc>
    <defs>
        <polygon id="path-1" points="0.800152405 0.0816 240.365808 0.0816 240.365808 50.694 0.800152405 50.694"></polygon>
        <polygon id="path-3" points="0 0.738394897 189.464104 0.738394897 189.464104 376.996621 0 376.996621"></polygon>
        <polygon id="path-5" points="0.381506825 0.250323383 189.844631 0.250323383 189.844631 376.493267 0.381506825 376.493267"></polygon>
    </defs>
    <g id="Page-2" stroke="none" stroke-width="1" fill="none" fill-rule="evenodd">
        <g id="Desktop-Copy-7" transform="translate(-213.000000, -139.000000)">
            <g id="Group" transform="translate(213.000000, 139.000000)">
                <g id="Group-33" transform="translate(267.000000, 0.000000)">
                    <path d="M21.3594252,229.091635 C23.3144262,228.754513 24.8742673,228.458253 25.997353,228.192642 C27.1308376,227.937246 28.2643222,227.600123 29.3874078,227.181274 C30.5208924,226.752208 31.3528077,226.323143 31.8831537,225.853215 C32.4031008,225.352639 32.891851,224.698825 33.3494044,223.891774 C33.7965589,223.074507 34.0981282,222.13465 34.2229155,221.082418 C34.3581017,220.040403 34.4204954,218.763423 34.4204954,217.251479 L34.4204954,163.434442 C34.4204954,160.134727 33.432596,158.132422 31.4359992,157.42753 C29.4290036,156.681773 26.0701456,156.722637 21.3594252,157.519472 L21.3594252,229.091635 Z M0,247 L0,147.058454 L21.2554358,143.319457 C28.0459444,142.124204 33.6197769,141.736002 38.0081301,142.175283 C42.4068822,142.62478 45.8385328,143.993702 48.3550766,146.302482 C50.8612214,148.631693 52.5978446,151.645365 53.5545472,155.312851 C54.5216487,159.010984 55,163.812428 55,169.778478 L55,202.530456 C55,206.095783 54.8856116,209.211614 54.6672339,211.888164 C54.4384572,214.595361 54.0224995,217.251479 53.3881641,219.897381 C52.7746266,222.553499 51.9115145,224.841847 50.8404235,226.782856 C49.7693326,228.744297 48.3862734,230.613795 46.691246,232.432215 C44.9962186,234.240418 42.9476272,235.803441 40.5662696,237.121284 C38.1641142,238.40848 35.366799,239.593517 32.1327283,240.655964 C28.9194555,241.677548 25.2070335,242.576542 21.0266591,243.312082 L0,247 Z" id="Fill-8" fill="#FFFFFF"></path>
                    <path d="M100.308619,194.666762 L110.640335,192.807314 L105.586778,156.62981 L100.308619,194.666762 Z M75,233 L96.5924686,129.197842 L114.468787,126 L136,222.108947 L116.071632,225.674592 L111.977741,205.026544 L98.9201674,207.355963 L95.0304603,229.424138 L75,233 Z" id="Fill-10" fill="#FFFFFF"></path>
                    <path d="M166.724933,216 L166.724933,182.898986 L148,119.225081 L167,115.79625 L176.30134,158.139755 C177.452547,153.12445 179.174263,145.458198 181.4563,135.212646 C183.748525,124.946623 185.449866,117.311077 186.550134,112.295772 L205,109 L186.224129,179.408743 L186.224129,212.509757 L166.724933,216 Z" id="Fill-12" fill="#FFFFFF"></path>
                    <path d="M223,177.84179 L243.934003,170.256644 C243.934003,172.277988 243.975725,174.054321 244.048739,175.61627 C244.121752,177.1578 244.309501,178.811627 244.643277,180.577752 C244.956192,182.343876 245.394273,183.762901 245.947089,184.855243 C246.489475,185.927168 247.261331,186.7745 248.262659,187.37682 C249.274417,187.999557 250.453063,188.193525 251.819458,187.958722 C255.887351,187.244105 257.931728,184.344803 257.931728,179.240397 C257.931728,172.226944 253.915987,165.979152 245.853214,160.486812 L239.448891,156.280782 C237.414944,154.963845 235.798217,153.851085 234.577849,152.952709 C233.357482,152.074752 231.938934,150.819068 230.290916,149.206076 C228.653328,147.603292 227.370377,146.010718 226.442063,144.418143 C225.513749,142.825569 224.721032,140.834851 224.06391,138.497033 C223.396359,136.11838 223.062583,133.54576 223.062583,130.768963 C223.062583,122.673376 225.691068,115.813055 230.948037,110.157374 C236.205007,104.532319 243.172577,100.969444 251.87161,99.4483315 C259.079082,98.1722302 265.233074,99.6218813 270.291864,103.776867 C275.361085,107.901227 277.895695,113.526282 277.895695,120.631614 L277.833112,121.366648 L277.833112,123.040893 L256.51318,129.635785 C256.51318,129.227433 256.544472,128.584278 256.607055,127.716529 C256.659207,126.838571 256.680068,126.123954 256.680068,125.56247 C256.680068,124.235324 256.596624,122.969432 256.408875,121.78521 C256.221126,120.590779 255.897781,119.426974 255.470131,118.283588 C255.03205,117.140201 254.364498,116.292869 253.457045,115.721176 C252.549592,115.149483 251.45439,115.006559 250.161009,115.220944 C247.908022,115.608879 246.197421,116.772684 245.060497,118.712358 C243.934003,120.662241 243.360326,122.806091 243.360326,125.174535 C243.360326,127.236715 243.683672,129.135554 244.351223,130.840425 C245.008344,132.535088 246.020102,134.035783 247.365636,135.383346 C248.71117,136.710491 249.941969,137.813043 251.068462,138.629748 C252.205386,139.477079 253.717808,140.487751 255.616158,141.651556 C257.504077,142.81536 258.849611,143.683109 259.642329,144.244594 C262.542006,146.245521 264.993173,148.195403 267.006258,150.043198 C269.008913,151.890993 270.896833,154.034843 272.680448,156.515584 C274.464062,158.986117 275.799166,161.732287 276.675327,164.815348 C277.561919,167.867782 278,171.257107 278,174.993532 C278,181.996776 275.454959,188.173107 270.354447,193.522524 C265.253935,198.861732 259.058221,202.179595 251.756875,203.455697 C247.03186,204.28261 242.828371,204.170314 239.167267,203.098388 C235.495733,202.036672 232.543903,200.239921 230.290916,197.708136 C228.04836,195.176351 226.306467,192.246422 225.10696,188.897932 C223.897023,185.56986 223.198179,181.884479 223,177.84179" id="Fill-14" fill="#FFFFFF"></path>
                    <polygon id="Fill-16" fill="#FFFFFF" points="0 376 0 274.666765 20.6776249 271 20.6776249 358.266943 41 354.672684 41 368.759692"></polygon>
                    <polygon id="Fill-18" fill="#FFFFFF" points="63 364 63 264.419671 106 257 106 270.831732 83.8468888 274.648435 83.8468888 301.772472 99.5320921 299.065157 99.5320921 313.222582 83.8468888 315.929896 83.8468888 346.5653 106 342.748597 106 356.590507"></polygon>
                    <polygon id="Fill-20" fill="#FFFFFF" points="128 354 128 254.429849 171 247 171 260.831732 148.851997 264.648435 148.851997 291.772472 164.530507 289.065157 164.530507 303.242937 148.851997 305.940074 148.851997 350.397032"></polygon>
                    <polygon id="Fill-22" fill="#FFFFFF" points="200.187889 342 200.187889 256.445322 185 259.08221 185 243.847998 236 235 236 250.234213 221.11883 252.809299 221.11883 338.353677"></polygon>
                    <polygon id="Fill-24" fill="#FFFFFF" points="341 56.2029586 1 117 1 90.8073373 341 30"></polygon>
                    <polygon id="Fill-26" fill="#FFFFFF" points="270 382.47732 1 431 1 404.533084 270 356"></polygon>
                    <g id="Group-30" transform="translate(99.000000, 0.000000)">
                        <mask id="mask-2" fill="white">
                            <use xlink:href="#path-1"></use>
                        </mask>
                        <g id="Clip-29"></g>
                        <path d="M4.63436,50.694 C2.82266,50.694 1.216835,49.419 0.8668475,47.5932 C0.475685,45.543 1.84475375,43.554 3.934385,43.1766 L235.821691,0.1224 C237.93191,-0.1734 239.887722,1.1118 240.299472,3.1722 C240.690635,5.2224 239.311272,7.2114 237.231935,7.599 L5.334335,50.643 C5.09757875,50.6838 4.8608225,50.694 4.63436,50.694" id="Fill-28" fill="#FFFFFF" mask="url(#mask-2)"></path>
                    </g>
                    <path d="M158.835903,429 C157.011443,429 155.393137,427.650624 155.063292,425.738124 C154.681907,423.602498 156.063137,421.530622 158.155596,421.148122 L233.473825,407.059366 C235.566284,406.687491 237.565974,408.100616 237.937051,410.236242 C238.318435,412.403743 236.926898,414.454369 234.844746,414.847494 L159.51621,428.925625 C159.289441,428.968125 159.052364,429 158.835903,429" id="Fill-31" fill="#FFFFFF"></path>
                </g>
                <g id="Group-9" transform="translate(0.000000, 94.000000)">
                    <g id="Group-3" transform="translate(0.000000, 13.000000)">
                        <mask id="mask-4" fill="white">
                            <use xlink:href="#path-3"></use>
                        </mask>
                        <g id="Clip-2"></g>
                        <path d="M94.794931,374.616085 C62.4425172,380.373763 38.5418276,375.69072 23.1125172,360.527519 C7.6832069,345.354459 -0.0216206897,321.475869 -0.00200302711,288.832594 L0.00786206897,275.95669 L62.0985517,264.88499 L62.0887241,274.93135 C62.354069,293.239584 64.7913103,306.352104 69.3807931,314.259053 C73.9702759,322.18572 82.5988966,325.015264 95.2764828,322.767403 C100.809414,321.761781 105.585621,319.977295 109.595276,317.36465 C113.604931,314.771723 116.769414,311.744998 119.108379,308.34363 C121.447345,304.952121 123.245793,300.545131 124.484069,295.152237 C125.722345,289.769202 126.55769,284.415745 126.999931,279.101723 C127.442172,273.767983 127.658379,267.320172 127.668207,259.75829 C127.687862,240.523307 124.572517,226.434741 118.312345,217.502453 C112.042345,208.580023 101.123897,205.060347 85.5275172,206.973 C84.9378621,207.07159 83.3359655,207.327925 80.712,207.712428 C78.0978621,208.116648 76.5745862,208.353265 76.1225172,208.432138 L76.1618276,156.425711 C80.8397586,155.587693 83.6013103,155.035587 84.4857931,154.729957 C100.504759,151.427179 111.73769,145.255421 118.145276,136.165388 C124.572517,127.085214 127.77631,113.450164 127.786138,95.2405207 C127.805793,79.2195837 125.378379,67.6352139 120.494069,60.4972703 C115.629414,53.3593267 107.000793,50.8847081 94.6082069,53.0832736 C89.3701034,54.0198823 84.8002759,55.7156368 80.9576897,58.1508192 C77.0757931,60.5761426 73.9801034,63.4648408 71.6607931,66.7971957 C69.3218276,70.1295506 67.4545862,74.2013333 66.0688966,79.0421211 C64.6733793,83.8829088 63.729931,88.7335556 63.2188966,93.6334975 C62.6980345,98.5432985 62.3638966,104.202386 62.2164828,110.630479 L62.2066552,122.865546 L0.115965517,133.937245 L0.13562069,117.107867 C0.155275862,86.2392189 8.37113793,60.8521957 24.7832069,40.9665158 C41.1952759,21.0808358 64.4866552,8.44154892 94.6475172,3.04865506 C125.103207,-2.37381592 148.532172,1.74726202 164.914759,15.431607 C181.297345,29.13567 189.483724,51.3283648 189.464104,82.0589867 C189.444414,102.605222 184.972862,120.509235 176.078897,135.771027 C167.165276,151.062395 155.362345,162.124235 140.630793,168.966408 C156.227172,171.579053 168.256138,179.446566 176.698034,192.578804 C185.130103,205.711043 189.346138,224.147444 189.326483,247.888008 C189.297,282.394642 181.690448,310.69994 166.516655,332.774327 C151.342862,354.848713 127.442172,368.789393 94.794931,374.616085" id="Fill-1" fill="#000000" mask="url(#mask-4)"></path>
                    </g>
                    <path d="M122.064024,380.621302 C89.6303033,386.375032 65.6524111,381.6952 50.1796241,366.532546 C34.7166924,351.379743 26.9901541,327.507675 27,294.896637 L27.0098647,282.019711 L89.2755132,270.965456 L89.265658,281.004926 C89.5416058,299.300605 91.9857148,312.404134 96.5782745,320.305661 C101.190545,328.226891 109.833624,331.054495 122.556788,328.798324 C128.10531,327.803244 132.894975,326.019981 136.915929,323.399276 C140.927027,320.808127 144.100427,317.79333 146.455838,314.394294 C148.801394,311.005111 150.595055,306.601143 151.83682,301.211947 C153.078585,295.822751 153.926139,290.472965 154.359771,285.162587 C154.813114,279.842358 155.02993,273.398968 155.039786,265.832419 C155.049641,246.620479 151.925518,232.541575 145.657561,223.615411 C139.369893,214.6991 128.410824,211.171985 112.780352,213.083327 C112.189035,213.191702 110.582625,213.438009 107.951266,213.8321 C105.329762,214.236043 103.792338,214.462646 103.348851,214.541464 L103.378417,162.580554 C108.069529,161.74311 110.838862,161.191382 111.725837,160.87611 C127.799796,157.585449 139.064379,151.417923 145.490021,142.334124 C151.935373,133.260176 155.148194,119.624625 155.158049,101.437321 C155.167904,85.4273702 152.73365,73.8509444 147.845432,66.7178956 C142.957214,59.5848469 134.314135,57.102073 121.886629,59.3089831 C116.623911,60.2449494 112.041206,61.9296888 108.187792,64.3730536 C104.304813,66.7967138 101.2004,69.6735788 98.8646991,73.0036485 C96.5191428,76.3435705 94.6564952,80.412561 93.2570457,85.2500292 C91.8674514,90.077645 90.9213447,94.9348177 90.399015,99.8313995 C89.8865405,104.737834 89.5416058,110.393041 89.4036319,116.816726 L89.3937766,129.043402 L27.128128,140.107509 L27.1379833,123.289672 C27.1675491,92.4421916 35.4065618,67.0725776 51.8550214,47.190682 C68.3133362,27.3186388 91.6703459,14.6978716 121.92605,9.30867589 C152.467558,3.88992339 175.962542,8.00817529 192.391291,21.6831362 C208.810184,35.3679493 217.029486,57.5454255 217,88.264826 C216.990065,108.796972 212.505914,126.688707 203.577031,141.940033 C194.648149,157.220915 182.81196,168.265318 168.038898,175.102798 C183.679224,177.713651 195.73223,185.575769 204.197914,198.708854 C212.653743,211.832088 216.891512,230.255846 216.871802,253.98013 C216.842236,288.4631 209.214251,316.748988 193.997701,338.808237 C178.781151,360.867486 154.813114,374.798606 122.064024,380.621302" id="Fill-4" fill="#FFFFFF"></path>
                    <g id="Group-8" transform="translate(52.000000, 0.000000)">
                        <mask id="mask-6" fill="white">
                            <use xlink:href="#path-5"></use>
                        </mask>
                        <g id="Clip-7"></g>
                        <path d="M95.1784409,374.112937 C62.8260271,379.870615 38.9253374,375.187572 23.4960271,360.014512 C8.06671675,344.861171 0.361889163,320.962862 0.381506825,288.339305 L0.391371921,275.443683 L62.4820616,264.381842 L62.472234,274.428202 C62.7375788,292.746295 65.1748202,305.848957 69.764303,313.755905 C74.3537857,321.682572 82.9824064,324.512116 95.6599926,322.254396 C101.192924,321.268493 105.969131,319.474148 109.978786,316.861502 C113.988441,314.258716 117.152924,311.25171 119.491889,307.840483 C121.830855,304.458833 123.629303,300.051842 124.867579,294.658949 C126.105855,289.266055 126.9412,283.912597 127.383441,278.598575 C127.825682,273.264836 128.051717,266.817025 128.051717,259.245284 C128.071372,240.030018 124.956027,225.931594 118.705682,217.009164 C112.425855,208.076876 101.507406,204.557199 85.9110271,206.469852 C85.3213719,206.568443 83.7194754,206.814919 81.0955099,207.219139 C78.4813719,207.613501 76.9580961,207.850118 76.5060271,207.92899 L76.5453374,155.922564 C81.2232685,155.094405 83.9848202,154.542299 84.869303,154.226809 C100.888268,150.933891 112.1212,144.762133 118.528786,135.66224 C124.956027,126.591925 128.15982,112.937158 128.179475,94.7472322 C128.189303,78.7262952 125.761889,67.1320663 120.877579,60.0039818 C116.012924,52.8561791 107.384303,50.3815605 94.9917167,52.5899851 C89.7536133,53.5265937 85.1837857,55.2124892 81.3411995,57.6476716 C77.459303,60.0828541 74.3636133,62.9715522 72.044303,66.2940481 C69.7053374,69.626403 67.8380961,73.7080448 66.4524064,78.5389735 C65.0568892,83.3699022 64.1134409,88.240267 63.6024064,93.1303499 C63.0815443,98.0401509 62.7474064,103.709098 62.5999926,110.137191 L62.590165,122.362398 L0.499475369,133.434098 L0.519130542,116.614579 C0.538785714,85.7360713 8.75464778,60.3589071 25.1667167,40.4535091 C41.5787857,20.5678292 64.870165,7.93840133 95.0310271,2.5553665 C125.496544,-2.86710448 148.915682,1.25397347 165.298268,14.9383184 C181.680855,28.6226633 189.867234,50.8252172 189.847614,81.5656982 C189.827924,102.102075 185.356372,120.015947 176.462406,135.277738 C167.548786,150.559247 155.745855,161.621088 141.024131,168.46326 C156.610682,171.075905 168.639648,178.943418 177.081544,192.085516 C185.513613,205.207896 189.729648,223.644297 189.709993,247.384861 C189.68051,281.901353 182.073958,310.206652 166.900165,332.281038 C151.726372,354.355425 127.825682,368.296104 95.1784409,374.112937" id="Fill-6" fill="#FF0A6B" mask="url(#mask-6)"></path>
                    </g>
                </g>
            </g>
        </g>
    </g>
</svg>