<?xml version="1.0" encoding="UTF-8"?>
<svg width="598px" height="479px" viewBox="0 0 598 479" version="1.1" xmlns="http://www.w3.org/2000/svg" xmlns:xlink="http://www.w3.org/1999/xlink">
    <!-- Generator: Sketch 56.2 (81672) - https://sketch.com -->
    <title>Group</title>
    <desc>Created with Sketch.</desc>
    <defs>
        <polygon id="path-1" points="0.800152405 0.0816 240.365808 0.0816 240.365808 50.694 0.800152405 50.694"></polygon>
        <polygon id="path-3" points="0.00669179104 0.232738462 181.803535 0.232738462 181.803535 372 0.00669179104 372"></polygon>
        <polygon id="path-5" points="0.82541194 0.0717693431 182.620343 0.0717693431 182.620343 372.473588 0.82541194 372.473588"></polygon>
    </defs>
    <g id="Page-2" stroke="none" stroke-width="1" fill="none" fill-rule="evenodd">
        <g id="Desktop-Copy-5" transform="translate(-223.000000, -139.000000)">
            <g id="Group" transform="translate(223.000000, 139.000000)">
                <g id="Group-33" transform="translate(257.000000, 0.000000)">
                    <path d="M21.3594252,229.091635 C23.3144262,228.754513 24.8742673,228.458253 25.997353,228.192642 C27.1308376,227.937246 28.2643222,227.600123 29.3874078,227.181274 C30.5208924,226.752208 31.3528077,226.323143 31.8831537,225.853215 C32.4031008,225.352639 32.891851,224.698825 33.3494044,223.891774 C33.7965589,223.074507 34.0981282,222.13465 34.2229155,221.082418 C34.3581017,220.040403 34.4204954,218.763423 34.4204954,217.251479 L34.4204954,163.434442 C34.4204954,160.134727 33.432596,158.132422 31.4359992,157.42753 C29.4290036,156.681773 26.0701456,156.722637 21.3594252,157.519472 L21.3594252,229.091635 Z M0,247 L0,147.058454 L21.2554358,143.319457 C28.0459444,142.124204 33.6197769,141.736002 38.0081301,142.175283 C42.4068822,142.62478 45.8385328,143.993702 48.3550766,146.302482 C50.8612214,148.631693 52.5978446,151.645365 53.5545472,155.312851 C54.5216487,159.010984 55,163.812428 55,169.778478 L55,202.530456 C55,206.095783 54.8856116,209.211614 54.6672339,211.888164 C54.4384572,214.595361 54.0224995,217.251479 53.3881641,219.897381 C52.7746266,222.553499 51.9115145,224.841847 50.8404235,226.782856 C49.7693326,228.744297 48.3862734,230.613795 46.691246,232.432215 C44.9962186,234.240418 42.9476272,235.803441 40.5662696,237.121284 C38.1641142,238.40848 35.366799,239.593517 32.1327283,240.655964 C28.9194555,241.677548 25.2070335,242.576542 21.0266591,243.312082 L0,247 Z" id="Fill-8" fill="#FFFFFF"></path>
                    <path d="M100.308619,194.666762 L110.640335,192.807314 L105.586778,156.62981 L100.308619,194.666762 Z M75,233 L96.5924686,129.197842 L114.468787,126 L136,222.108947 L116.071632,225.674592 L111.977741,205.026544 L98.9201674,207.355963 L95.0304603,229.424138 L75,233 Z" id="Fill-10" fill="#FFFFFF"></path>
                    <path d="M166.724933,216 L166.724933,182.898986 L148,119.225081 L167,115.79625 L176.30134,158.139755 C177.452547,153.12445 179.174263,145.458198 181.4563,135.212646 C183.748525,124.946623 185.449866,117.311077 186.550134,112.295772 L205,109 L186.224129,179.408743 L186.224129,212.509757 L166.724933,216 Z" id="Fill-12" fill="#FFFFFF"></path>
                    <path d="M223,177.84179 L243.934003,170.256644 C243.934003,172.277988 243.975725,174.054321 244.048739,175.61627 C244.121752,177.1578 244.309501,178.811627 244.643277,180.577752 C244.956192,182.343876 245.394273,183.762901 245.947089,184.855243 C246.489475,185.927168 247.261331,186.7745 248.262659,187.37682 C249.274417,187.999557 250.453063,188.193525 251.819458,187.958722 C255.887351,187.244105 257.931728,184.344803 257.931728,179.240397 C257.931728,172.226944 253.915987,165.979152 245.853214,160.486812 L239.448891,156.280782 C237.414944,154.963845 235.798217,153.851085 234.577849,152.952709 C233.357482,152.074752 231.938934,150.819068 230.290916,149.206076 C228.653328,147.603292 227.370377,146.010718 226.442063,144.418143 C225.513749,142.825569 224.721032,140.834851 224.06391,138.497033 C223.396359,136.11838 223.062583,133.54576 223.062583,130.768963 C223.062583,122.673376 225.691068,115.813055 230.948037,110.157374 C236.205007,104.532319 243.172577,100.969444 251.87161,99.4483315 C259.079082,98.1722302 265.233074,99.6218813 270.291864,103.776867 C275.361085,107.901227 277.895695,113.526282 277.895695,120.631614 L277.833112,121.366648 L277.833112,123.040893 L256.51318,129.635785 C256.51318,129.227433 256.544472,128.584278 256.607055,127.716529 C256.659207,126.838571 256.680068,126.123954 256.680068,125.56247 C256.680068,124.235324 256.596624,122.969432 256.408875,121.78521 C256.221126,120.590779 255.897781,119.426974 255.470131,118.283588 C255.03205,117.140201 254.364498,116.292869 253.457045,115.721176 C252.549592,115.149483 251.45439,115.006559 250.161009,115.220944 C247.908022,115.608879 246.197421,116.772684 245.060497,118.712358 C243.934003,120.662241 243.360326,122.806091 243.360326,125.174535 C243.360326,127.236715 243.683672,129.135554 244.351223,130.840425 C245.008344,132.535088 246.020102,134.035783 247.365636,135.383346 C248.71117,136.710491 249.941969,137.813043 251.068462,138.629748 C252.205386,139.477079 253.717808,140.487751 255.616158,141.651556 C257.504077,142.81536 258.849611,143.683109 259.642329,144.244594 C262.542006,146.245521 264.993173,148.195403 267.006258,150.043198 C269.008913,151.890993 270.896833,154.034843 272.680448,156.515584 C274.464062,158.986117 275.799166,161.732287 276.675327,164.815348 C277.561919,167.867782 278,171.257107 278,174.993532 C278,181.996776 275.454959,188.173107 270.354447,193.522524 C265.253935,198.861732 259.058221,202.179595 251.756875,203.455697 C247.03186,204.28261 242.828371,204.170314 239.167267,203.098388 C235.495733,202.036672 232.543903,200.239921 230.290916,197.708136 C228.04836,195.176351 226.306467,192.246422 225.10696,188.897932 C223.897023,185.56986 223.198179,181.884479 223,177.84179" id="Fill-14" fill="#FFFFFF"></path>
                    <polygon id="Fill-16" fill="#FFFFFF" points="0 376 0 274.666765 20.6776249 271 20.6776249 358.266943 41 354.672684 41 368.759692"></polygon>
                    <polygon id="Fill-18" fill="#FFFFFF" points="63 364 63 264.419671 106 257 106 270.831732 83.8468888 274.648435 83.8468888 301.772472 99.5320921 299.065157 99.5320921 313.222582 83.8468888 315.929896 83.8468888 346.5653 106 342.748597 106 356.590507"></polygon>
                    <polygon id="Fill-20" fill="#FFFFFF" points="128 354 128 254.429849 171 247 171 260.831732 148.851997 264.648435 148.851997 291.772472 164.530507 289.065157 164.530507 303.242937 148.851997 305.940074 148.851997 350.397032"></polygon>
                    <polygon id="Fill-22" fill="#FFFFFF" points="200.187889 342 200.187889 256.445322 185 259.08221 185 243.847998 236 235 236 250.234213 221.11883 252.809299 221.11883 338.353677"></polygon>
                    <polygon id="Fill-24" fill="#FFFFFF" points="341 56.2029586 1 117 1 90.8073373 341 30"></polygon>
                    <polygon id="Fill-26" fill="#FFFFFF" points="270 382.47732 1 431 1 404.533084 270 356"></polygon>
                    <g id="Group-30" transform="translate(99.000000, 0.000000)">
                        <mask id="mask-2" fill="white">
                            <use xlink:href="#path-1"></use>
                        </mask>
                        <g id="Clip-29"></g>
                        <path d="M4.63436,50.694 C2.82266,50.694 1.216835,49.419 0.8668475,47.5932 C0.475685,45.543 1.84475375,43.554 3.934385,43.1766 L235.821691,0.1224 C237.93191,-0.1734 239.887722,1.1118 240.299472,3.1722 C240.690635,5.2224 239.311272,7.2114 237.231935,7.599 L5.334335,50.643 C5.09757875,50.6838 4.8608225,50.694 4.63436,50.694" id="Fill-28" fill="#FFFFFF" mask="url(#mask-2)"></path>
                    </g>
                    <path d="M158.835903,429 C157.011443,429 155.393137,427.650624 155.063292,425.738124 C154.681907,423.602498 156.063137,421.530622 158.155596,421.148122 L233.473825,407.059366 C235.566284,406.687491 237.565974,408.100616 237.937051,410.236242 C238.318435,412.403743 236.926898,414.454369 234.844746,414.847494 L159.51621,428.925625 C159.289441,428.968125 159.052364,429 158.835903,429" id="Fill-31" fill="#FFFFFF"></path>
                </g>
                <g id="Group-9" transform="translate(0.000000, 94.000000)">
                    <g id="Group-3" transform="translate(0.000000, 13.000000)">
                        <mask id="mask-4" fill="white">
                            <use xlink:href="#path-3"></use>
                        </mask>
                        <g id="Clip-2"></g>
                        <path d="M89.5237366,369.561969 C72.2302366,372.623815 57.6325724,372.814585 45.730744,370.067508 C33.819356,367.329969 24.6038037,361.702277 18.0840873,353.213046 C11.5643709,344.723815 6.91835597,334.555815 4.15560224,322.709046 C1.39284851,310.890892 0.00669179104,296.430585 0.00669179104,279.385354 L59.3341993,268.816738 C59.3341993,278.412431 59.6879082,286.300738 60.3953261,292.510277 C61.102744,298.738892 62.5271396,304.6432 64.6493933,310.251815 C66.771647,315.860431 70.1079828,319.752123 74.6392813,321.898277 C79.1705799,324.053969 84.9255201,324.445046 91.8658634,323.061969 C96.2537664,322.270277 100.115886,320.810892 103.452222,318.674277 C106.788557,316.528123 109.551311,314.277046 111.740483,311.901969 C113.939214,309.545969 115.812916,306.083508 117.380707,301.485969 C118.938938,296.936123 120.105222,292.920431 120.889117,289.467508 C121.663453,286.014585 122.227475,280.978277 122.590744,274.377662 C122.934893,267.738892 123.154766,262.330585 123.221684,258.076431 C123.298162,253.831815 123.336401,247.631815 123.336401,239.447815 C123.336401,230.586585 123.154766,223.222892 122.791498,217.356738 C122.437789,211.509662 121.625214,205.595815 120.363334,199.624738 C119.082334,193.653662 117.304229,189.094277 115.04814,185.984738 C112.772931,182.856123 109.58955,180.547815 105.478878,179.021662 C101.358647,177.485969 96.3971619,177.247508 90.5848634,178.277662 C82.2201246,179.7752 75.1746246,183.838585 69.429244,190.515508 C63.6934231,197.163815 59.6114306,205.223815 57.2119455,214.666892 L5.32188582,223.900123 L8.09419925,28.7336615 L168.20008,0.232738462 L168.20008,54.9644308 L59.7548261,74.2798154 L56.141259,157.569662 C60.815953,151.674892 67.3069903,146.400123 75.5952515,141.745354 C83.8835127,137.100123 93.0703858,133.742585 103.136751,131.6632 C116.883602,128.658585 128.861908,128.629969 139.071669,131.605969 C149.281431,134.572431 157.454975,140.305046 163.620983,148.784738 C169.78699,157.273969 174.366087,167.775815 177.339154,180.2712 C180.312222,192.785662 181.803535,207.408123 181.803535,224.186277 C181.803535,239.686277 181.057878,253.631508 179.566565,266.002892 C178.084811,278.393354 175.331617,290.621662 171.278304,302.678277 C167.23455,314.753969 161.842878,325.045969 155.122408,333.563815 C148.382819,342.0912 139.492296,349.559815 128.431722,355.969662 C117.380707,362.369969 104.417751,366.900738 89.5237366,369.561969" id="Fill-1" fill="#000000" mask="url(#mask-4)"></path>
                    </g>
                    <path d="M115.617079,375.54765 C98.3042541,378.630475 83.6902771,378.811818 71.7751486,376.063045 C59.8504496,373.323817 50.624599,367.702195 44.0975969,359.19818 C37.5705947,350.694165 32.9193879,340.538978 30.1535468,328.684897 C27.3877057,316.849904 26,302.380671 26,285.334463 L85.3938055,274.759324 C85.3938055,284.351395 85.7479098,292.235028 86.4561182,298.467487 C87.1643267,304.680859 88.5903139,310.598355 90.7149393,316.210432 C92.8395646,321.82251 96.1796288,325.716604 100.715991,327.864083 C105.252353,330.011561 111.013725,330.412424 117.961824,329.018949 C122.35463,328.245856 126.221065,326.785571 129.56113,324.638093 C132.901194,322.490614 135.667035,320.228603 137.858653,317.871149 C140.059841,315.504151 141.935637,312.039552 143.50518,307.44872 C145.065152,302.886521 146.232739,298.86835 147.017511,295.413296 C147.792712,291.948697 148.357364,286.928369 148.721039,280.304591 C149.065573,273.680813 149.285692,268.250078 149.352684,264.002843 C149.429248,259.765152 149.467529,253.561325 149.467529,245.372274 C149.467529,236.505574 149.285692,229.118247 148.922017,223.267561 C148.567913,217.416875 147.75443,211.499379 146.49114,205.505528 C145.208708,199.54031 143.428617,194.987655 141.170006,191.857109 C138.892254,188.745651 135.705316,186.41683 131.590051,184.889734 C127.465215,183.372182 122.498186,183.133574 116.679392,184.145275 C108.305306,185.653282 101.251932,189.728719 95.5001315,196.390675 C89.7579008,203.062175 85.6713467,211.108061 83.2691802,220.566511 L31.3211337,229.795896 L34.0965452,34.5185149 L194.381343,6 L194.381343,60.7654748 L85.8149025,80.0927816 L82.1972972,163.443582 C86.8772151,157.53563 93.3755061,152.257605 101.673029,147.599962 C109.970553,142.951864 119.167692,139.592253 129.245307,137.511585 C143.00752,134.505115 154.999211,134.476482 165.220382,137.454319 C175.441552,140.422612 183.624231,146.158766 189.797129,154.643692 C195.970027,163.138163 200.554241,173.646491 203.53063,186.159132 C206.50702,198.66223 208,213.303261 208,230.082227 C208,245.591794 207.25351,259.555176 205.76053,271.943742 C204.27712,284.341851 201.52085,296.568162 197.463007,308.641764 C193.414734,320.705821 188.017037,331.004173 181.289057,339.527277 C174.541936,348.069469 165.641479,355.542695 154.568544,361.946953 C143.50518,368.3703 130.527738,372.894321 115.617079,375.54765" id="Fill-4" fill="#FFFFFF"></path>
                    <g id="Group-8" transform="translate(49.000000, 0.000000)">
                        <mask id="mask-6" fill="white">
                            <use xlink:href="#path-5"></use>
                        </mask>
                        <g id="Clip-7"></g>
                        <path d="M90.3424567,370.021923 C73.0489567,373.09855 58.4512925,373.289645 46.5494642,370.537879 C34.6380761,367.795667 25.4225239,362.177477 18.9028075,353.6642 C12.383091,345.141368 7.73707612,334.984674 4.97432239,323.117682 C2.21156866,311.260244 0.82541194,296.775251 0.82541194,279.700923 L60.1529194,269.12382 C60.1529194,278.735893 60.5066284,286.618558 61.2140463,292.867361 C61.9214642,299.087499 63.3458597,305.011441 65.4681134,310.620076 C67.5903672,316.238266 70.926703,320.136601 75.4580015,322.295974 C79.9893,324.436236 85.7442403,324.837536 92.6845836,323.442543 C97.0724866,322.659054 100.934606,321.216288 104.270942,319.056915 C107.607278,316.916653 110.370031,314.652178 112.559203,312.292156 C114.757934,309.913025 116.631636,306.444653 118.199427,301.858375 C119.757658,297.281653 120.923942,293.259105 121.707837,289.800288 C122.482173,286.34147 123.046196,281.296565 123.409464,274.675127 C123.753613,268.03458 123.973487,262.617039 124.040404,258.355623 C124.116882,254.122872 124.155121,247.893178 124.155121,239.714317 C124.155121,230.828404 123.973487,223.433032 123.610218,217.575974 C123.256509,211.718915 122.443934,205.794974 121.182054,199.794594 C119.901054,193.822879 118.122949,189.265266 115.86686,186.140864 C113.591651,183.026018 110.40827,180.685105 106.297599,179.165901 C102.177367,177.646696 97.2158821,177.388718 91.4035836,178.420631 C83.0388448,179.920726 75.9933448,184.010156 70.2479642,190.669813 C64.5121433,197.34858 60.4301507,205.403229 58.0306657,214.881536 L6.14060597,224.120974 L8.9129194,28.6309007 L169.0188,0.0717693431 L169.0188,54.9064482 L60.5735463,74.2548058 L56.9599791,157.69639 C61.6346731,151.772448 68.1257104,146.488674 76.4139716,141.835514 C84.7022328,137.172799 93.889106,133.809528 103.955472,131.726594 C117.702322,128.71685 129.680628,128.69774 139.89039,131.669266 C150.100151,134.650346 158.273696,140.392747 164.439703,148.886915 C170.60571,157.381083 175.184807,167.900857 178.157875,180.427127 C181.130942,192.943842 182.622255,207.61993 182.622255,224.407616 C182.622255,239.934076 181.876599,253.922222 180.385285,266.314726 C178.903531,278.716784 176.150337,290.965966 172.097024,303.052718 C168.05327,315.129915 162.661599,325.439485 155.941128,333.981426 C149.201539,342.513813 140.311016,349.995178 129.250442,356.415966 C118.199427,362.846309 105.236472,367.384813 90.3424567,370.021923" id="Fill-6" fill="#FF0A6B" mask="url(#mask-6)"></path>
                    </g>
                </g>
            </g>
        </g>
    </g>
</svg>