<?xml version="1.0" encoding="UTF-8"?>
<svg width="603px" height="479px" viewBox="0 0 603 479" version="1.1" xmlns="http://www.w3.org/2000/svg" xmlns:xlink="http://www.w3.org/1999/xlink">
    <!-- Generator: Sketch 56.2 (81672) - https://sketch.com -->
    <title>Group</title>
    <desc>Created with Sketch.</desc>
    <defs>
        <polygon id="path-1" points="0.800152405 0.0816 240.365808 0.0816 240.365808 50.694 0.800152405 50.694"></polygon>
        <polygon id="path-3" points="0.0009804375 0.00853024801 188.627351 0.00853024801 188.627351 372 0.0009804375 372"></polygon>
        <polygon id="path-5" points="0.0645936646 0.216504732 189.50302 0.216504732 189.50302 372.027841 0.0645936646 372.027841"></polygon>
    </defs>
    <g id="Page-2" stroke="none" stroke-width="1" fill="none" fill-rule="evenodd">
        <g id="Desktop-Copy-4" transform="translate(-218.000000, -139.000000)">
            <g id="Group" transform="translate(218.000000, 139.000000)">
                <g id="Group-33" transform="translate(262.000000, 0.000000)">
                    <path d="M21.3594252,229.091635 C23.3144262,228.754513 24.8742673,228.458253 25.997353,228.192642 C27.1308376,227.937246 28.2643222,227.600123 29.3874078,227.181274 C30.5208924,226.752208 31.3528077,226.323143 31.8831537,225.853215 C32.4031008,225.352639 32.891851,224.698825 33.3494044,223.891774 C33.7965589,223.074507 34.0981282,222.13465 34.2229155,221.082418 C34.3581017,220.040403 34.4204954,218.763423 34.4204954,217.251479 L34.4204954,163.434442 C34.4204954,160.134727 33.432596,158.132422 31.4359992,157.42753 C29.4290036,156.681773 26.0701456,156.722637 21.3594252,157.519472 L21.3594252,229.091635 Z M0,247 L0,147.058454 L21.2554358,143.319457 C28.0459444,142.124204 33.6197769,141.736002 38.0081301,142.175283 C42.4068822,142.62478 45.8385328,143.993702 48.3550766,146.302482 C50.8612214,148.631693 52.5978446,151.645365 53.5545472,155.312851 C54.5216487,159.010984 55,163.812428 55,169.778478 L55,202.530456 C55,206.095783 54.8856116,209.211614 54.6672339,211.888164 C54.4384572,214.595361 54.0224995,217.251479 53.3881641,219.897381 C52.7746266,222.553499 51.9115145,224.841847 50.8404235,226.782856 C49.7693326,228.744297 48.3862734,230.613795 46.691246,232.432215 C44.9962186,234.240418 42.9476272,235.803441 40.5662696,237.121284 C38.1641142,238.40848 35.366799,239.593517 32.1327283,240.655964 C28.9194555,241.677548 25.2070335,242.576542 21.0266591,243.312082 L0,247 Z" id="Fill-8" fill="#FFFFFF"></path>
                    <path d="M100.308619,194.666762 L110.640335,192.807314 L105.586778,156.62981 L100.308619,194.666762 Z M75,233 L96.5924686,129.197842 L114.468787,126 L136,222.108947 L116.071632,225.674592 L111.977741,205.026544 L98.9201674,207.355963 L95.0304603,229.424138 L75,233 Z" id="Fill-10" fill="#FFFFFF"></path>
                    <path d="M166.724933,216 L166.724933,182.898986 L148,119.225081 L167,115.79625 L176.30134,158.139755 C177.452547,153.12445 179.174263,145.458198 181.4563,135.212646 C183.748525,124.946623 185.449866,117.311077 186.550134,112.295772 L205,109 L186.224129,179.408743 L186.224129,212.509757 L166.724933,216 Z" id="Fill-12" fill="#FFFFFF"></path>
                    <path d="M223,177.84179 L243.934003,170.256644 C243.934003,172.277988 243.975725,174.054321 244.048739,175.61627 C244.121752,177.1578 244.309501,178.811627 244.643277,180.577752 C244.956192,182.343876 245.394273,183.762901 245.947089,184.855243 C246.489475,185.927168 247.261331,186.7745 248.262659,187.37682 C249.274417,187.999557 250.453063,188.193525 251.819458,187.958722 C255.887351,187.244105 257.931728,184.344803 257.931728,179.240397 C257.931728,172.226944 253.915987,165.979152 245.853214,160.486812 L239.448891,156.280782 C237.414944,154.963845 235.798217,153.851085 234.577849,152.952709 C233.357482,152.074752 231.938934,150.819068 230.290916,149.206076 C228.653328,147.603292 227.370377,146.010718 226.442063,144.418143 C225.513749,142.825569 224.721032,140.834851 224.06391,138.497033 C223.396359,136.11838 223.062583,133.54576 223.062583,130.768963 C223.062583,122.673376 225.691068,115.813055 230.948037,110.157374 C236.205007,104.532319 243.172577,100.969444 251.87161,99.4483315 C259.079082,98.1722302 265.233074,99.6218813 270.291864,103.776867 C275.361085,107.901227 277.895695,113.526282 277.895695,120.631614 L277.833112,121.366648 L277.833112,123.040893 L256.51318,129.635785 C256.51318,129.227433 256.544472,128.584278 256.607055,127.716529 C256.659207,126.838571 256.680068,126.123954 256.680068,125.56247 C256.680068,124.235324 256.596624,122.969432 256.408875,121.78521 C256.221126,120.590779 255.897781,119.426974 255.470131,118.283588 C255.03205,117.140201 254.364498,116.292869 253.457045,115.721176 C252.549592,115.149483 251.45439,115.006559 250.161009,115.220944 C247.908022,115.608879 246.197421,116.772684 245.060497,118.712358 C243.934003,120.662241 243.360326,122.806091 243.360326,125.174535 C243.360326,127.236715 243.683672,129.135554 244.351223,130.840425 C245.008344,132.535088 246.020102,134.035783 247.365636,135.383346 C248.71117,136.710491 249.941969,137.813043 251.068462,138.629748 C252.205386,139.477079 253.717808,140.487751 255.616158,141.651556 C257.504077,142.81536 258.849611,143.683109 259.642329,144.244594 C262.542006,146.245521 264.993173,148.195403 267.006258,150.043198 C269.008913,151.890993 270.896833,154.034843 272.680448,156.515584 C274.464062,158.986117 275.799166,161.732287 276.675327,164.815348 C277.561919,167.867782 278,171.257107 278,174.993532 C278,181.996776 275.454959,188.173107 270.354447,193.522524 C265.253935,198.861732 259.058221,202.179595 251.756875,203.455697 C247.03186,204.28261 242.828371,204.170314 239.167267,203.098388 C235.495733,202.036672 232.543903,200.239921 230.290916,197.708136 C228.04836,195.176351 226.306467,192.246422 225.10696,188.897932 C223.897023,185.56986 223.198179,181.884479 223,177.84179" id="Fill-14" fill="#FFFFFF"></path>
                    <polygon id="Fill-16" fill="#FFFFFF" points="0 376 0 274.666765 20.6776249 271 20.6776249 358.266943 41 354.672684 41 368.759692"></polygon>
                    <polygon id="Fill-18" fill="#FFFFFF" points="63 364 63 264.419671 106 257 106 270.831732 83.8468888 274.648435 83.8468888 301.772472 99.5320921 299.065157 99.5320921 313.222582 83.8468888 315.929896 83.8468888 346.5653 106 342.748597 106 356.590507"></polygon>
                    <polygon id="Fill-20" fill="#FFFFFF" points="128 354 128 254.429849 171 247 171 260.831732 148.851997 264.648435 148.851997 291.772472 164.530507 289.065157 164.530507 303.242937 148.851997 305.940074 148.851997 350.397032"></polygon>
                    <polygon id="Fill-22" fill="#FFFFFF" points="200.187889 342 200.187889 256.445322 185 259.08221 185 243.847998 236 235 236 250.234213 221.11883 252.809299 221.11883 338.353677"></polygon>
                    <polygon id="Fill-24" fill="#FFFFFF" points="341 56.2029586 1 117 1 90.8073373 341 30"></polygon>
                    <polygon id="Fill-26" fill="#FFFFFF" points="270 382.47732 1 431 1 404.533084 270 356"></polygon>
                    <g id="Group-30" transform="translate(99.000000, 0.000000)">
                        <mask id="mask-2" fill="white">
                            <use xlink:href="#path-1"></use>
                        </mask>
                        <g id="Clip-29"></g>
                        <path d="M4.63436,50.694 C2.82266,50.694 1.216835,49.419 0.8668475,47.5932 C0.475685,45.543 1.84475375,43.554 3.934385,43.1766 L235.821691,0.1224 C237.93191,-0.1734 239.887722,1.1118 240.299472,3.1722 C240.690635,5.2224 239.311272,7.2114 237.231935,7.599 L5.334335,50.643 C5.09757875,50.6838 4.8608225,50.694 4.63436,50.694" id="Fill-28" fill="#FFFFFF" mask="url(#mask-2)"></path>
                    </g>
                    <path d="M158.835903,429 C157.011443,429 155.393137,427.650624 155.063292,425.738124 C154.681907,423.602498 156.063137,421.530622 158.155596,421.148122 L233.473825,407.059366 C235.566284,406.687491 237.565974,408.100616 237.937051,410.236242 C238.318435,412.403743 236.926898,414.454369 234.844746,414.847494 L159.51621,428.925625 C159.289441,428.968125 159.052364,429 158.835903,429" id="Fill-31" fill="#FFFFFF"></path>
                </g>
                <g id="Group-9" transform="translate(0.000000, 93.000000)">
                    <g id="Group-3" transform="translate(0.000000, 14.000000)">
                        <mask id="mask-4" fill="white">
                            <use xlink:href="#path-3"></use>
                        </mask>
                        <g id="Clip-2"></g>
                        <path d="M94.8681129,322.215207 C101.1135,321.110074 106.427471,318.616189 110.780614,314.713992 C115.14356,310.841135 118.447635,305.706666 120.712445,299.300804 C122.957647,292.904722 124.516543,286.137003 125.389132,278.968306 C126.271526,271.799609 126.702919,263.525778 126.702919,254.137034 C126.702919,247.349755 126.663701,242.176166 126.585266,238.655387 C126.516635,235.134608 126.300939,230.557595 125.938177,224.904789 C125.575415,219.261762 124.987153,214.997708 124.192999,212.102845 C123.38904,209.207982 122.192906,205.941482 120.594793,202.342463 C118.99668,198.723885 117.11424,196.122421 114.91806,194.57719 C112.741489,193.012399 109.947242,191.848586 106.525515,191.075971 C103.113592,190.313135 99.1526248,190.342475 94.6524167,191.14443 C80.5439211,193.648095 69.7100867,202.577182 62.1607179,217.93169 L62.1607179,272.122347 C62.1607179,309.393704 73.0533786,326.097844 94.8681129,322.215207 M94.4269161,370.195601 C81.3478798,372.533007 69.5238036,372.601466 58.9939048,370.420539 C48.4542017,368.259172 39.5420248,364.298296 32.2769829,358.508571 C25.0119411,352.718845 18.9430329,345.23719 14.0702586,336.063605 C9.19748419,326.899799 5.63849606,316.650421 3.39329419,305.335028 C1.11867919,294.048976 0.0009804375,281.66757 0.0009804375,268.23971 L0.0009804375,147.095574 C0.0009804375,132.210502 0.883374187,118.528364 2.62855294,106.098058 C4.37373169,93.6384129 7.42289231,81.5112853 11.7760348,69.6873359 C16.1487861,57.8438267 21.8451279,47.5162084 28.8944736,38.6653612 C35.9438192,29.834074 45.0030617,22.2252795 56.0525923,15.8487575 C67.0923186,9.48201558 79.8870279,5.00280234 94.4269161,2.41111782 C154.184582,-8.22945862 184.627166,16.4746738 185.793887,76.5039552 L185.793887,81.726444 L125.820525,92.3963603 C125.820525,75.9171587 123.722389,64.3083681 119.506507,57.5406485 C115.290626,50.7924888 107.005929,48.5039825 94.6524167,50.7044693 C82.8675579,52.7973768 74.5044261,60.0247537 69.5630211,72.3963797 C64.6216161,84.7582259 62.1607179,104.298549 62.1607179,131.046689 L62.1607179,173.736134 C66.3765992,165.765482 72.6906167,158.968423 81.1223792,153.335176 C89.5541417,147.71171 99.4467561,143.848633 110.780614,141.677486 C162.684975,131.848645 188.627351,161.550327 188.627351,230.753194 C188.627351,248.816746 186.970412,265.325287 183.617315,280.308158 C180.274024,295.271468 175.038487,309.051406 167.910707,321.677311 C160.802535,334.273875 151.017769,344.777533 138.585821,353.119823 C126.153874,361.462113 111.427702,367.163819 94.4269161,370.195601" id="Fill-1" fill="#000000" mask="url(#mask-4)"></path>
                    </g>
                    <path d="M123.055044,327.222078 C129.312802,326.097365 134.637299,323.603436 138.999064,319.720732 C143.370653,315.847808 146.681272,310.693688 148.950569,304.287715 C151.200218,297.901302 152.762202,291.133464 153.63652,283.954862 C154.520661,276.79582 154.952908,268.512065 154.952908,259.132937 C154.952908,252.335759 154.913613,247.18164 154.835023,243.651019 C154.766256,240.139959 154.550133,235.543306 154.186652,229.909962 C153.823172,224.257057 153.233744,219.983148 152.438017,217.088235 C151.632465,214.193321 150.433962,210.936544 148.832684,207.337463 C147.231405,203.718821 145.345236,201.127092 143.144706,199.562274 C140.963823,198.007236 138.164042,196.833622 134.735537,196.080554 C131.316856,195.317705 127.348043,195.327485 122.838921,196.139234 C108.702479,198.633163 97.8471854,207.581966 90.2828629,222.936742 L90.2828629,277.118563 C90.2828629,314.390571 101.1971,331.095002 123.055044,327.222078 M122.612974,375.193528 C109.508031,377.521195 97.6605333,377.599436 87.109777,375.428251 C76.5491969,373.266846 67.6193669,369.28634 60.3399345,363.496514 C53.0605021,357.716468 46.9795727,350.244462 42.0971464,341.051157 C37.2147201,331.887191 33.6486824,321.647414 31.3990332,310.341604 C29.1199127,299.035795 28,286.673733 28,273.235859 L28,152.079829 C28,137.204278 28.8841416,123.521901 30.6327772,111.091379 C32.3814128,98.6315159 35.4366131,86.5041768 39.7983783,74.6800212 C44.179791,62.8363053 49.8874162,52.5085069 56.9507251,43.6575053 C64.014034,34.826064 73.091221,27.2171368 84.1626384,20.8405036 C95.224232,14.4736506 108.044285,9.99435921 122.612974,7.40262948 C182.489007,-3.23813257 212.991891,21.4664308 214.160923,81.4967594 L214.160923,86.7193393 L154.068767,97.3894417 C154.068767,80.9099526 151.966474,69.3009595 147.742242,62.5331219 C143.51801,55.7848445 135.216903,53.4962982 122.838921,55.6968234 C111.030719,57.7897674 102.651021,65.0172704 97.6998285,77.3891123 C92.7486356,89.7511741 90.2828629,109.291838 90.2828629,136.040445 L90.2828629,178.730635 C94.507095,170.750063 100.833619,163.952885 109.282083,158.339101 C117.730547,152.715536 127.642757,148.832832 138.999064,146.671427 C191.006237,136.842414 217,166.544615 217,235.738909 C217,253.802776 215.339779,270.331165 211.980041,285.304517 C208.630126,300.277869 203.38422,314.058047 196.24232,326.664612 C189.120069,339.280956 179.315921,349.775017 166.859348,358.117452 C154.402776,366.469668 139.647435,372.171474 122.612974,375.193528" id="Fill-4" fill="#FFFFFF"></path>
                    <g id="Group-8" transform="translate(51.000000, 0.000000)">
                        <mask id="mask-6" fill="white">
                            <use xlink:href="#path-5"></use>
                        </mask>
                        <g id="Clip-7"></g>
                        <path d="M95.340139,322.269538 C101.612413,321.155154 106.949261,318.662453 111.321145,314.78166 C115.702874,310.891092 119.021173,305.749286 121.295734,299.346466 C123.550602,292.982747 125.116209,286.198691 125.992555,279.023623 C126.878747,271.887656 127.311997,263.588429 127.311997,254.223694 C127.311997,247.420087 127.27261,242.268505 127.193838,238.739623 C127.124912,235.230291 126.908287,230.645677 126.543963,225.00533 C126.17964,219.364984 125.588845,215.102954 124.791271,212.189916 C123.983851,209.306203 122.782568,206.041254 121.177575,202.443944 C119.572582,198.827084 117.682038,196.226855 115.476403,194.682358 C113.290461,193.128086 110.484185,191.95505 107.047727,191.202352 C103.621116,190.439879 99.6430961,190.449655 95.1235142,191.261004 C80.95428,193.753705 70.0738048,202.698102 62.4919353,218.045319 L62.4919353,272.19069 C62.4919353,309.454123 73.4314899,326.140556 95.340139,322.269538 M94.8970427,370.217371 C81.7616999,372.553667 69.8867198,372.622094 59.3114887,370.461754 C48.7264111,368.301413 39.7758663,364.322867 32.4795477,358.535891 C25.1832291,352.748915 19.0881937,345.270813 14.1944415,336.101584 C9.30068932,326.932355 5.72637938,316.697619 3.47151168,305.40715 C1.18710422,294.097131 0.0645936646,281.750931 0.0645936646,268.309897 L0.0645936646,147.22329 C0.0645936646,132.355063 0.950786211,118.679422 2.70347814,106.255019 C4.45617006,93.8012906 7.51845764,81.6701467 11.8903409,69.8518123 C16.2819173,58.0237026 22.0027825,47.7009887 29.0824763,38.8543447 C36.1621701,30.017476 45.2604135,22.42207 56.3575135,16.0388009 C67.444767,9.68485766 80.2945589,5.19799621 94.8970427,2.61731774 C154.911971,-8.01820568 185.485614,16.6741952 186.657358,76.6749698 L186.657358,81.8852032 L126.425804,92.5500525 C126.425804,76.0884519 124.318635,64.4753988 120.084604,57.7206684 C115.850573,50.965938 107.53021,48.6785184 95.1235142,50.8877356 C83.2879204,52.9698739 74.8887843,60.2035939 69.9261061,72.5595696 C64.9634278,84.9253207 62.4919353,104.456365 62.4919353,131.182027 L62.4919353,173.8512 C66.7259663,165.884333 73.0671663,159.080726 81.5352284,153.469705 C90.0032906,147.858684 99.9384937,143.968116 111.321145,141.807775 C163.44896,131.993377 189.50302,161.680955 189.50302,230.841183 C189.50302,248.886382 187.838948,265.416409 184.471416,280.372614 C181.113731,295.348369 175.855655,309.111988 168.697189,321.722121 C161.558415,334.32248 151.731525,344.811374 139.246056,353.149702 C126.760588,361.507581 111.971019,367.196804 94.8970427,370.217371" id="Fill-6" fill="#BF393F" mask="url(#mask-6)"></path>
                    </g>
                </g>
            </g>
        </g>
    </g>
</svg>