<?xml version="1.0" encoding="UTF-8"?>
<svg width="572px" height="479px" viewBox="0 0 572 479" version="1.1" xmlns="http://www.w3.org/2000/svg" xmlns:xlink="http://www.w3.org/1999/xlink">
    <!-- Generator: Sketch 56.2 (81672) - https://sketch.com -->
    <title>Group</title>
    <desc>Created with Sketch.</desc>
    <defs>
        <polygon id="path-1" points="0.800152405 0.0816 240.365808 0.0816 240.365808 50.694 0.800152405 50.694"></polygon>
        <polygon id="path-3" points="0 0.27859635 155.493 0.27859635 155.493 382 0 382"></polygon>
    </defs>
    <g id="Page-2" stroke="none" stroke-width="1" fill="none" fill-rule="evenodd">
        <g id="Desktop-Copy-3" transform="translate(-249.000000, -139.000000)">
            <g id="Group" transform="translate(249.000000, 139.000000)">
                <g id="Group-33" transform="translate(231.000000, 0.000000)">
                    <path d="M21.3594252,229.091635 C23.3144262,228.754513 24.8742673,228.458253 25.997353,228.192642 C27.1308376,227.937246 28.2643222,227.600123 29.3874078,227.181274 C30.5208924,226.752208 31.3528077,226.323143 31.8831537,225.853215 C32.4031008,225.352639 32.891851,224.698825 33.3494044,223.891774 C33.7965589,223.074507 34.0981282,222.13465 34.2229155,221.082418 C34.3581017,220.040403 34.4204954,218.763423 34.4204954,217.251479 L34.4204954,163.434442 C34.4204954,160.134727 33.432596,158.132422 31.4359992,157.42753 C29.4290036,156.681773 26.0701456,156.722637 21.3594252,157.519472 L21.3594252,229.091635 Z M0,247 L0,147.058454 L21.2554358,143.319457 C28.0459444,142.124204 33.6197769,141.736002 38.0081301,142.175283 C42.4068822,142.62478 45.8385328,143.993702 48.3550766,146.302482 C50.8612214,148.631693 52.5978446,151.645365 53.5545472,155.312851 C54.5216487,159.010984 55,163.812428 55,169.778478 L55,202.530456 C55,206.095783 54.8856116,209.211614 54.6672339,211.888164 C54.4384572,214.595361 54.0224995,217.251479 53.3881641,219.897381 C52.7746266,222.553499 51.9115145,224.841847 50.8404235,226.782856 C49.7693326,228.744297 48.3862734,230.613795 46.691246,232.432215 C44.9962186,234.240418 42.9476272,235.803441 40.5662696,237.121284 C38.1641142,238.40848 35.366799,239.593517 32.1327283,240.655964 C28.9194555,241.677548 25.2070335,242.576542 21.0266591,243.312082 L0,247 Z" id="Fill-8" fill="#FFFFFF"></path>
                    <path d="M100.308619,194.666762 L110.640335,192.807314 L105.586778,156.62981 L100.308619,194.666762 Z M75,233 L96.5924686,129.197842 L114.468787,126 L136,222.108947 L116.071632,225.674592 L111.977741,205.026544 L98.9201674,207.355963 L95.0304603,229.424138 L75,233 Z" id="Fill-10" fill="#FFFFFF"></path>
                    <path d="M166.724933,216 L166.724933,182.898986 L148,119.225081 L167,115.79625 L176.30134,158.139755 C177.452547,153.12445 179.174263,145.458198 181.4563,135.212646 C183.748525,124.946623 185.449866,117.311077 186.550134,112.295772 L205,109 L186.224129,179.408743 L186.224129,212.509757 L166.724933,216 Z" id="Fill-12" fill="#FFFFFF"></path>
                    <path d="M223,177.84179 L243.934003,170.256644 C243.934003,172.277988 243.975725,174.054321 244.048739,175.61627 C244.121752,177.1578 244.309501,178.811627 244.643277,180.577752 C244.956192,182.343876 245.394273,183.762901 245.947089,184.855243 C246.489475,185.927168 247.261331,186.7745 248.262659,187.37682 C249.274417,187.999557 250.453063,188.193525 251.819458,187.958722 C255.887351,187.244105 257.931728,184.344803 257.931728,179.240397 C257.931728,172.226944 253.915987,165.979152 245.853214,160.486812 L239.448891,156.280782 C237.414944,154.963845 235.798217,153.851085 234.577849,152.952709 C233.357482,152.074752 231.938934,150.819068 230.290916,149.206076 C228.653328,147.603292 227.370377,146.010718 226.442063,144.418143 C225.513749,142.825569 224.721032,140.834851 224.06391,138.497033 C223.396359,136.11838 223.062583,133.54576 223.062583,130.768963 C223.062583,122.673376 225.691068,115.813055 230.948037,110.157374 C236.205007,104.532319 243.172577,100.969444 251.87161,99.4483315 C259.079082,98.1722302 265.233074,99.6218813 270.291864,103.776867 C275.361085,107.901227 277.895695,113.526282 277.895695,120.631614 L277.833112,121.366648 L277.833112,123.040893 L256.51318,129.635785 C256.51318,129.227433 256.544472,128.584278 256.607055,127.716529 C256.659207,126.838571 256.680068,126.123954 256.680068,125.56247 C256.680068,124.235324 256.596624,122.969432 256.408875,121.78521 C256.221126,120.590779 255.897781,119.426974 255.470131,118.283588 C255.03205,117.140201 254.364498,116.292869 253.457045,115.721176 C252.549592,115.149483 251.45439,115.006559 250.161009,115.220944 C247.908022,115.608879 246.197421,116.772684 245.060497,118.712358 C243.934003,120.662241 243.360326,122.806091 243.360326,125.174535 C243.360326,127.236715 243.683672,129.135554 244.351223,130.840425 C245.008344,132.535088 246.020102,134.035783 247.365636,135.383346 C248.71117,136.710491 249.941969,137.813043 251.068462,138.629748 C252.205386,139.477079 253.717808,140.487751 255.616158,141.651556 C257.504077,142.81536 258.849611,143.683109 259.642329,144.244594 C262.542006,146.245521 264.993173,148.195403 267.006258,150.043198 C269.008913,151.890993 270.896833,154.034843 272.680448,156.515584 C274.464062,158.986117 275.799166,161.732287 276.675327,164.815348 C277.561919,167.867782 278,171.257107 278,174.993532 C278,181.996776 275.454959,188.173107 270.354447,193.522524 C265.253935,198.861732 259.058221,202.179595 251.756875,203.455697 C247.03186,204.28261 242.828371,204.170314 239.167267,203.098388 C235.495733,202.036672 232.543903,200.239921 230.290916,197.708136 C228.04836,195.176351 226.306467,192.246422 225.10696,188.897932 C223.897023,185.56986 223.198179,181.884479 223,177.84179" id="Fill-14" fill="#FFFFFF"></path>
                    <polygon id="Fill-16" fill="#FFFFFF" points="0 376 0 274.666765 20.6776249 271 20.6776249 358.266943 41 354.672684 41 368.759692"></polygon>
                    <polygon id="Fill-18" fill="#FFFFFF" points="63 364 63 264.419671 106 257 106 270.831732 83.8468888 274.648435 83.8468888 301.772472 99.5320921 299.065157 99.5320921 313.222582 83.8468888 315.929896 83.8468888 346.5653 106 342.748597 106 356.590507"></polygon>
                    <polygon id="Fill-20" fill="#FFFFFF" points="128 354 128 254.429849 171 247 171 260.831732 148.851997 264.648435 148.851997 291.772472 164.530507 289.065157 164.530507 303.242937 148.851997 305.940074 148.851997 350.397032"></polygon>
                    <polygon id="Fill-22" fill="#FFFFFF" points="200.187889 342 200.187889 256.445322 185 259.08221 185 243.847998 236 235 236 250.234213 221.11883 252.809299 221.11883 338.353677"></polygon>
                    <polygon id="Fill-24" fill="#FFFFFF" points="341 56.2029586 1 117 1 90.8073373 341 30"></polygon>
                    <polygon id="Fill-26" fill="#FFFFFF" points="270 382.47732 1 431 1 404.533084 270 356"></polygon>
                    <g id="Group-30" transform="translate(99.000000, 0.000000)">
                        <mask id="mask-2" fill="white">
                            <use xlink:href="#path-1"></use>
                        </mask>
                        <g id="Clip-29"></g>
                        <path d="M4.63436,50.694 C2.82266,50.694 1.216835,49.419 0.8668475,47.5932 C0.475685,45.543 1.84475375,43.554 3.934385,43.1766 L235.821691,0.1224 C237.93191,-0.1734 239.887722,1.1118 240.299472,3.1722 C240.690635,5.2224 239.311272,7.2114 237.231935,7.599 L5.334335,50.643 C5.09757875,50.6838 4.8608225,50.694 4.63436,50.694" id="Fill-28" fill="#FFFFFF" mask="url(#mask-2)"></path>
                    </g>
                    <path d="M158.835903,429 C157.011443,429 155.393137,427.650624 155.063292,425.738124 C154.681907,423.602498 156.063137,421.530622 158.155596,421.148122 L233.473825,407.059366 C235.566284,406.687491 237.565974,408.100616 237.937051,410.236242 C238.318435,412.403743 236.926898,414.454369 234.844746,414.847494 L159.51621,428.925625 C159.289441,428.968125 159.052364,429 158.835903,429" id="Fill-31" fill="#FFFFFF"></path>
                </g>
                <g id="Group-6" transform="translate(0.000000, 84.000000)">
                    <g id="Group-3" transform="translate(0.000000, 13.000000)">
                        <mask id="mask-4" fill="white">
                            <use xlink:href="#path-3"></use>
                        </mask>
                        <g id="Clip-2"></g>
                        <polygon id="Fill-1" fill="#000000" mask="url(#mask-4)" points="24.95025 382.003902 94.99425 58.2139057 0 75.1682023 0 28.041501 155.493 0.27859635 155.493 36.3723233 84.58125 371.351375"></polygon>
                    </g>
                    <polygon id="Fill-4" fill="#FFFFFF" points="27 33.7115694 27 80.7608679 122.300182 63.8087097 52.0331724 387 111.852574 376.376907 183 42.0269877 183 6"></polygon>
                    <polygon id="Fill-5" fill="#FF0A6B" points="206 0 50 27.7108612 50 74.7492205 145.300182 57.8072323 75.0331724 381 134.862357 370.377179 206 36.0163302"></polygon>
                </g>
            </g>
        </g>
    </g>
</svg>