<?xml version="1.0" encoding="UTF-8"?>
<svg width="611px" height="479px" viewBox="0 0 611 479" version="1.1" xmlns="http://www.w3.org/2000/svg" xmlns:xlink="http://www.w3.org/1999/xlink">
    <!-- Generator: Sketch 56.2 (81672) - https://sketch.com -->
    <title>Group</title>
    <desc>Created with Sketch.</desc>
    <defs>
        <polygon id="path-1" points="0.800152405 0.0816 240.365808 0.0816 240.365808 50.694 0.800152405 50.694"></polygon>
        <polygon id="path-3" points="0.00192440158 0.161023466 192.962049 0.161023466 192.962049 381 0.00192440158 381"></polygon>
        <polygon id="path-5" points="0.0281427642 0.161424908 192.985698 0.161424908 192.985698 380.995075 0.0281427642 380.995075"></polygon>
    </defs>
    <g id="Page-2" stroke="none" stroke-width="1" fill="none" fill-rule="evenodd">
        <g id="Desktop-Copy-2" transform="translate(-210.000000, -139.000000)">
            <g id="Group" transform="translate(210.000000, 139.000000)">
                <g id="Group-33" transform="translate(270.000000, 0.000000)">
                    <path d="M21.3594252,229.091635 C23.3144262,228.754513 24.8742673,228.458253 25.997353,228.192642 C27.1308376,227.937246 28.2643222,227.600123 29.3874078,227.181274 C30.5208924,226.752208 31.3528077,226.323143 31.8831537,225.853215 C32.4031008,225.352639 32.891851,224.698825 33.3494044,223.891774 C33.7965589,223.074507 34.0981282,222.13465 34.2229155,221.082418 C34.3581017,220.040403 34.4204954,218.763423 34.4204954,217.251479 L34.4204954,163.434442 C34.4204954,160.134727 33.432596,158.132422 31.4359992,157.42753 C29.4290036,156.681773 26.0701456,156.722637 21.3594252,157.519472 L21.3594252,229.091635 Z M0,247 L0,147.058454 L21.2554358,143.319457 C28.0459444,142.124204 33.6197769,141.736002 38.0081301,142.175283 C42.4068822,142.62478 45.8385328,143.993702 48.3550766,146.302482 C50.8612214,148.631693 52.5978446,151.645365 53.5545472,155.312851 C54.5216487,159.010984 55,163.812428 55,169.778478 L55,202.530456 C55,206.095783 54.8856116,209.211614 54.6672339,211.888164 C54.4384572,214.595361 54.0224995,217.251479 53.3881641,219.897381 C52.7746266,222.553499 51.9115145,224.841847 50.8404235,226.782856 C49.7693326,228.744297 48.3862734,230.613795 46.691246,232.432215 C44.9962186,234.240418 42.9476272,235.803441 40.5662696,237.121284 C38.1641142,238.40848 35.366799,239.593517 32.1327283,240.655964 C28.9194555,241.677548 25.2070335,242.576542 21.0266591,243.312082 L0,247 Z" id="Fill-8" fill="#FFFFFF"></path>
                    <path d="M100.308619,194.666762 L110.640335,192.807314 L105.586778,156.62981 L100.308619,194.666762 Z M75,233 L96.5924686,129.197842 L114.468787,126 L136,222.108947 L116.071632,225.674592 L111.977741,205.026544 L98.9201674,207.355963 L95.0304603,229.424138 L75,233 Z" id="Fill-10" fill="#FFFFFF"></path>
                    <path d="M166.724933,216 L166.724933,182.898986 L148,119.225081 L167,115.79625 L176.30134,158.139755 C177.452547,153.12445 179.174263,145.458198 181.4563,135.212646 C183.748525,124.946623 185.449866,117.311077 186.550134,112.295772 L205,109 L186.224129,179.408743 L186.224129,212.509757 L166.724933,216 Z" id="Fill-12" fill="#FFFFFF"></path>
                    <path d="M223,177.84179 L243.934003,170.256644 C243.934003,172.277988 243.975725,174.054321 244.048739,175.61627 C244.121752,177.1578 244.309501,178.811627 244.643277,180.577752 C244.956192,182.343876 245.394273,183.762901 245.947089,184.855243 C246.489475,185.927168 247.261331,186.7745 248.262659,187.37682 C249.274417,187.999557 250.453063,188.193525 251.819458,187.958722 C255.887351,187.244105 257.931728,184.344803 257.931728,179.240397 C257.931728,172.226944 253.915987,165.979152 245.853214,160.486812 L239.448891,156.280782 C237.414944,154.963845 235.798217,153.851085 234.577849,152.952709 C233.357482,152.074752 231.938934,150.819068 230.290916,149.206076 C228.653328,147.603292 227.370377,146.010718 226.442063,144.418143 C225.513749,142.825569 224.721032,140.834851 224.06391,138.497033 C223.396359,136.11838 223.062583,133.54576 223.062583,130.768963 C223.062583,122.673376 225.691068,115.813055 230.948037,110.157374 C236.205007,104.532319 243.172577,100.969444 251.87161,99.4483315 C259.079082,98.1722302 265.233074,99.6218813 270.291864,103.776867 C275.361085,107.901227 277.895695,113.526282 277.895695,120.631614 L277.833112,121.366648 L277.833112,123.040893 L256.51318,129.635785 C256.51318,129.227433 256.544472,128.584278 256.607055,127.716529 C256.659207,126.838571 256.680068,126.123954 256.680068,125.56247 C256.680068,124.235324 256.596624,122.969432 256.408875,121.78521 C256.221126,120.590779 255.897781,119.426974 255.470131,118.283588 C255.03205,117.140201 254.364498,116.292869 253.457045,115.721176 C252.549592,115.149483 251.45439,115.006559 250.161009,115.220944 C247.908022,115.608879 246.197421,116.772684 245.060497,118.712358 C243.934003,120.662241 243.360326,122.806091 243.360326,125.174535 C243.360326,127.236715 243.683672,129.135554 244.351223,130.840425 C245.008344,132.535088 246.020102,134.035783 247.365636,135.383346 C248.71117,136.710491 249.941969,137.813043 251.068462,138.629748 C252.205386,139.477079 253.717808,140.487751 255.616158,141.651556 C257.504077,142.81536 258.849611,143.683109 259.642329,144.244594 C262.542006,146.245521 264.993173,148.195403 267.006258,150.043198 C269.008913,151.890993 270.896833,154.034843 272.680448,156.515584 C274.464062,158.986117 275.799166,161.732287 276.675327,164.815348 C277.561919,167.867782 278,171.257107 278,174.993532 C278,181.996776 275.454959,188.173107 270.354447,193.522524 C265.253935,198.861732 259.058221,202.179595 251.756875,203.455697 C247.03186,204.28261 242.828371,204.170314 239.167267,203.098388 C235.495733,202.036672 232.543903,200.239921 230.290916,197.708136 C228.04836,195.176351 226.306467,192.246422 225.10696,188.897932 C223.897023,185.56986 223.198179,181.884479 223,177.84179" id="Fill-14" fill="#FFFFFF"></path>
                    <polygon id="Fill-16" fill="#FFFFFF" points="0 376 0 274.666765 20.6776249 271 20.6776249 358.266943 41 354.672684 41 368.759692"></polygon>
                    <polygon id="Fill-18" fill="#FFFFFF" points="63 364 63 264.419671 106 257 106 270.831732 83.8468888 274.648435 83.8468888 301.772472 99.5320921 299.065157 99.5320921 313.222582 83.8468888 315.929896 83.8468888 346.5653 106 342.748597 106 356.590507"></polygon>
                    <polygon id="Fill-20" fill="#FFFFFF" points="128 354 128 254.429849 171 247 171 260.831732 148.851997 264.648435 148.851997 291.772472 164.530507 289.065157 164.530507 303.242937 148.851997 305.940074 148.851997 350.397032"></polygon>
                    <polygon id="Fill-22" fill="#FFFFFF" points="200.187889 342 200.187889 256.445322 185 259.08221 185 243.847998 236 235 236 250.234213 221.11883 252.809299 221.11883 338.353677"></polygon>
                    <polygon id="Fill-24" fill="#FFFFFF" points="341 56.2029586 1 117 1 90.8073373 341 30"></polygon>
                    <polygon id="Fill-26" fill="#FFFFFF" points="270 382.47732 1 431 1 404.533084 270 356"></polygon>
                    <g id="Group-30" transform="translate(99.000000, 0.000000)">
                        <mask id="mask-2" fill="white">
                            <use xlink:href="#path-1"></use>
                        </mask>
                        <g id="Clip-29"></g>
                        <path d="M4.63436,50.694 C2.82266,50.694 1.216835,49.419 0.8668475,47.5932 C0.475685,45.543 1.84475375,43.554 3.934385,43.1766 L235.821691,0.1224 C237.93191,-0.1734 239.887722,1.1118 240.299472,3.1722 C240.690635,5.2224 239.311272,7.2114 237.231935,7.599 L5.334335,50.643 C5.09757875,50.6838 4.8608225,50.694 4.63436,50.694" id="Fill-28" fill="#FFFFFF" mask="url(#mask-2)"></path>
                    </g>
                    <path d="M158.835903,429 C157.011443,429 155.393137,427.650624 155.063292,425.738124 C154.681907,423.602498 156.063137,421.530622 158.155596,421.148122 L233.473825,407.059366 C235.566284,406.687491 237.565974,408.100616 237.937051,410.236242 C238.318435,412.403743 236.926898,414.454369 234.844746,414.847494 L159.51621,428.925625 C159.289441,428.968125 159.052364,429 158.835903,429" id="Fill-31" fill="#FFFFFF"></path>
                </g>
                <g id="Group-9" transform="translate(0.000000, 84.000000)">
                    <g id="Group-3" transform="translate(0.000000, 14.000000)">
                        <mask id="mask-4" fill="white">
                            <use xlink:href="#path-3"></use>
                        </mask>
                        <g id="Clip-2"></g>
                        <path d="M96.7026354,154.820583 C116.341562,151.319942 126.171065,130.226079 126.171065,91.5089894 C126.171065,77.6264473 123.781462,66.8244692 119.032376,59.0930535 C114.263209,51.3716396 106.823309,48.3910938 96.7026354,50.2114271 C86.1201056,52.0917714 78.4191565,57.7027989 73.5797074,67.0545114 C68.7502986,76.4162256 66.330574,88.0383538 66.330574,101.930898 C66.330574,140.808017 76.4512477,158.41124 96.7026354,154.820583 M81.180253,329.902643 C85.5678863,331.562947 90.7286267,331.853 96.7026354,330.81281 C102.646523,329.732612 107.787183,327.582218 112.104534,324.291616 C116.421885,321.011015 119.815523,317.310337 122.275409,313.179581 C124.725255,309.058826 126.653002,304.017903 128.068692,298.076815 C129.484381,292.135727 130.377972,286.63472 130.759506,281.533786 C131.120958,276.432852 131.311725,270.641792 131.311725,264.140601 C131.311725,223.653187 119.775362,205.459856 96.7026354,209.58061 C73.168053,213.751374 61.4108021,236.085464 61.4108021,276.562876 C61.4108021,283.074068 61.6316898,288.87513 62.093546,293.966063 C62.5353214,299.056995 63.4891547,304.267949 64.985167,309.628931 C66.4711389,314.979911 68.4490881,319.270696 70.8989337,322.531293 C73.3588196,325.801892 76.7825793,328.262343 81.180253,329.902643 M96.7026354,378.691577 C31.9323319,390.193684 -0.297194386,358.767929 0.00401614035,284.384308 C0.154621404,242.676671 14.6629284,211.1609 43.5490179,189.746978 C18.6790688,175.564381 6.02822667,150.859858 5.58645123,115.603401 C5.2852407,84.9377861 12.875746,59.713167 28.357967,39.9695516 C43.8401881,20.2359381 66.6217442,7.67363773 96.7026354,2.33265971 C126.763446,-3.00831832 149.394397,1.50250769 164.585448,15.8651377 C179.766458,30.2377696 187.216399,52.7218868 186.905148,83.3674985 C186.463372,119.354088 173.953095,148.559436 149.394397,170.943535 C178.280486,182.795705 192.788793,209.170535 192.949439,250.078026 C193.692425,324.26161 161.603464,367.149464 96.7026354,378.691577" id="Fill-1" fill="#000000" mask="url(#mask-4)"></path>
                    </g>
                    <path d="M123.720694,160.736251 C143.363679,157.234142 153.195214,136.111418 153.195214,97.3780873 C153.195214,83.4997276 150.805116,72.6932183 146.055049,64.9485534 C141.284897,57.2339064 133.843459,54.2621164 123.720694,56.0632013 C113.135977,57.9443344 105.433437,63.5677216 100.592988,72.923357 C95.762581,82.2889984 93.3423564,93.9160019 93.3423564,107.804368 C93.3423564,146.707801 103.465122,164.328415 123.720694,160.736251 M108.195104,335.891756 C112.583644,337.532744 117.745451,337.842931 123.720694,336.782292 C129.66581,335.721653 134.807532,333.560351 139.125775,330.268369 C143.444018,326.986392 146.838358,323.294168 149.298752,319.141666 C151.749104,315.019183 153.67725,309.976146 155.093232,304.042571 C156.509214,298.098991 157.40299,292.58567 157.784602,287.492603 C158.14613,282.399535 158.336936,276.606045 158.336936,270.102127 C158.336936,229.587724 146.798188,211.396766 123.720694,215.499237 C100.181248,219.691763 88.4215678,242.015209 88.4215678,282.529613 C88.4215678,289.033531 88.6425012,294.82702 89.1044528,299.920088 C89.5463195,305.013156 90.5003499,310.246308 91.9966714,315.599533 C93.4829504,320.942751 95.4613082,325.255349 97.9116601,328.517314 C100.372054,331.779279 103.796522,334.230755 108.195104,335.891756 M123.720694,384.681144 C58.9370059,396.208087 26.7008194,364.759144 27.0020922,290.354326 C27.1527286,248.629193 41.6640337,217.08019 70.5560925,195.677298 C45.681004,181.468739 33.0275476,156.753852 32.5856809,121.502619 C32.2844081,90.8041274 39.8764819,65.568927 55.3619024,45.8170295 C70.8473228,26.085144 93.6335868,13.52758 123.720694,8.17435545 C153.787717,2.83113697 176.423344,7.33384917 191.617534,21.7025041 C206.801682,36.0911711 214.253162,58.5947261 213.941847,89.2431872 C213.49998,125.234867 200.987118,154.462472 176.423344,176.845955 C205.315403,188.723109 219.826708,215.109002 219.987387,256.023647 C220.730527,330.23835 188.634934,373.134189 123.720694,384.681144" id="Fill-4" fill="#FFFFFF"></path>
                    <g id="Group-8" transform="translate(52.000000, 0.000000)">
                        <mask id="mask-6" fill="white">
                            <use xlink:href="#path-5"></use>
                        </mask>
                        <g id="Clip-7"></g>
                        <path d="M96.7288538,154.832748 C116.36778,151.332107 126.197284,130.21824 126.197284,91.5011507 C126.197284,77.6186086 123.80768,66.8166306 119.058594,59.0852148 C114.289427,51.3638009 106.849527,48.4032588 96.7288538,50.2035885 C86.146324,52.0839328 78.4453749,57.7049621 73.6059257,67.0666764 C68.776517,76.408387 66.3567924,88.040517 66.3567924,101.923059 C66.3567924,140.800178 76.4774661,158.423405 96.7288538,154.832748 M81.2064713,329.904806 C85.5941047,331.555109 90.754845,331.845162 96.7288538,330.794969 C102.672742,329.744777 107.813401,327.57438 112.130752,324.293779 C116.448103,321.003176 119.841742,317.322502 122.301627,313.171742 C124.751473,309.040986 126.67922,304.020066 128.09491,298.068977 C129.510599,292.147892 130.404191,286.61688 130.785724,281.535949 C131.147177,276.435015 131.337943,270.643955 131.337943,264.142764 C131.337943,223.65535 119.80158,205.462019 96.7288538,209.56277 C73.1942713,213.743535 61.4370205,236.067623 61.4370205,276.575041 C61.4370205,283.076231 61.6579082,288.867292 62.1197643,293.948222 C62.5615398,299.049156 63.5153731,304.270112 65.0113854,309.631094 C66.4973573,314.972072 68.4753064,319.27286 70.925152,322.543458 C73.385038,325.794054 76.8087977,328.254504 81.2064713,329.904806 M96.7288538,378.683739 C31.9585503,390.185845 -0.270976023,358.76009 0.0302345029,284.376469 C0.180839766,242.678834 14.6891468,211.153061 43.5752363,189.759143 C18.7052871,175.556543 6.05444503,150.852019 5.61266959,115.595563 C5.31145906,84.9299474 12.9019643,59.7053284 28.3841854,39.961713 C43.8664064,20.2381013 66.6479626,7.67580092 96.7288538,2.34482473 C126.789664,-3.01615696 149.420615,1.48466722 164.611666,15.8572991 C179.792677,30.229931 187.242617,52.72405 186.931366,83.3696617 C186.489591,119.34625 173.979313,148.551598 149.420615,170.925695 C178.306705,182.797869 192.815012,209.1827 192.975657,250.070187 C193.718643,324.273775 161.629682,367.141625 96.7288538,378.683739" id="Fill-6" fill="#BF393F" mask="url(#mask-6)"></path>
                    </g>
                </g>
            </g>
        </g>
    </g>
</svg>