<?xml version="1.0" encoding="UTF-8"?>
<svg width="618px" height="490px" viewBox="0 0 618 490" version="1.1" xmlns="http://www.w3.org/2000/svg" xmlns:xlink="http://www.w3.org/1999/xlink">
    <!-- Generator: Sketch 56.2 (81672) - https://sketch.com -->
    <title>Group 33</title>
    <desc>Created with Sketch.</desc>
    <defs>
        <polygon id="path-1" points="0.00724818182 0.690829194 199.207994 0.690829194 199.207994 392 0.00724818182 392"></polygon>
        <polygon id="path-3" points="0.800152405 0.0816 240.365808 0.0816 240.365808 50.694 0.800152405 50.694"></polygon>
    </defs>
    <g id="Page-2" stroke="none" stroke-width="1" fill="none" fill-rule="evenodd">
        <g id="Desktop-Copy" transform="translate(-203.000000, -139.000000)">
            <g id="Group-33" transform="translate(203.000000, 139.000000)">
                <g id="Group-3" transform="translate(0.000000, 98.000000)">
                    <mask id="mask-2" fill="white">
                        <use xlink:href="#path-1"></use>
                    </mask>
                    <g id="Clip-2"></g>
                    <path d="M99.9493209,190.633906 C114.228239,188.103871 125.276539,178.847646 133.11493,162.86523 L133.11493,105.898306 C133.11493,66.5387797 121.900957,48.8593895 99.4833664,52.818997 C92.8875209,54.0017369 87.3167755,56.6654728 82.7918391,60.7896354 C78.2669027,64.9343673 74.8084845,70.3852555 72.4372936,77.1114458 C70.0350391,83.8376362 68.3990209,90.9649296 67.4671118,98.4933261 C66.5559118,106.032007 66.1003118,114.732859 66.1003118,124.616451 L66.1003118,137.266625 C66.1003118,140.064062 66.2038573,143.961961 66.4420118,148.929469 C66.6698118,153.907261 66.9700936,157.661175 67.3739209,160.160355 C67.7466845,162.680106 68.3161845,165.858076 69.0927755,169.663413 C69.8590118,173.48932 70.7805664,176.348465 71.8574391,178.292272 C72.9343118,180.236079 74.34253,182.313588 76.1131573,184.586505 C77.87343,186.869708 79.8822118,188.402127 82.0980845,189.235187 C84.3243118,190.057963 86.9336573,190.66476 89.9261209,191.035009 C92.9289391,191.425827 96.2631027,191.271557 99.9493209,190.633906 M99.2659209,389.488478 C35.9996482,400.698795 3.92126636,374.4214 2.98935727,310.615154 L2.98935727,306.059034 L66.3281118,294.828148 C66.3281118,311.993303 68.5957573,324.149812 73.1206936,331.328529 C77.64563,338.507246 86.5194755,340.934434 99.7215209,338.589524 C112.002012,336.419453 120.637703,328.829348 125.618239,315.880918 C130.619485,302.901633 133.11493,282.291105 133.11493,254.039049 L133.11493,209.35205 C123.588748,227.010871 106.628003,238.149195 82.2119845,242.767023 C70.0764573,245.081079 59.2559573,245.225065 49.74013,243.157842 C40.2139482,241.142041 32.3962664,237.449836 26.2560209,232.060656 C20.1054209,226.70233 15.0420482,219.62646 11.0555482,210.822761 C7.05869364,202.049917 4.22154818,192.454297 2.53375727,182.035901 C0.845966364,171.607221 0.00724818182,160.026654 0.00724818182,147.263348 C0.00724818182,128.432072 1.84000273,111.153785 5.52622091,95.4593412 C9.20208455,79.7648971 14.8970845,65.4794561 22.5698027,52.5515949 C30.2528755,39.6545878 40.5660027,28.8967971 53.5506027,20.2885077 C66.5144936,11.6802182 81.8288664,5.80765757 99.4833664,2.68111039 C116.671912,-0.363159239 131.768839,0.0893673275 144.743085,4.007836 C157.706975,7.94687407 168.123648,14.8273348 175.951685,24.690357 C183.790075,34.5430945 189.60933,46.4322016 193.440512,60.3165394 C197.282048,74.242016 199.207994,90.142154 199.207994,108.088946 L199.207994,237.295566 C199.207994,252.948871 198.286439,267.326874 196.44333,280.409006 C194.610575,293.511707 191.338539,306.285298 186.658285,318.719493 C181.967675,331.184543 175.951685,342.055466 168.579248,351.321976 C161.206812,360.61934 151.649566,368.610547 139.897157,375.326453 C128.175812,382.052643 114.611357,386.763033 99.2659209,389.488478" id="Fill-1" fill="#000000" mask="url(#mask-2)"></path>
                </g>
                <path d="M127.841356,280.797122 C142.105884,278.269075 153.14305,269.020124 160.973542,253.050268 L160.973542,196.117834 C160.973542,156.799514 149.77087,139.12374 127.375871,143.090513 C120.786672,144.262046 115.221541,146.913412 110.701164,151.054887 C106.180788,155.186086 102.725855,160.642967 100.357054,167.343318 C97.9572201,174.064223 96.3228506,181.206469 95.3918807,188.728949 C94.4815989,196.241153 94.0264581,204.955721 94.0264581,214.821269 L94.0264581,227.461503 C94.0264581,230.267018 94.1298992,234.161854 94.3678137,239.125458 C94.5953841,244.099338 94.8953633,247.840025 95.2987837,250.347519 C95.6711716,252.855012 96.2400977,256.020209 97.015906,259.832832 C97.7813702,263.645456 98.701996,266.502354 99.7777836,268.444634 C100.853571,270.39719 102.26037,272.483343 104.029213,274.754474 C105.787712,277.035882 107.794469,278.567097 110.008109,279.389226 C112.232093,280.211355 114.838809,280.807399 117.828257,281.187633 C120.828049,281.578145 124.158852,281.434272 127.841356,280.797122 M127.158644,479.485151 C63.9561285,490.696936 31.9100738,464.419637 30.9791039,400.663532 L30.9791039,396.121269 L94.2540285,384.899208 C94.2540285,402.040598 96.5193887,414.197831 101.039765,421.381183 C105.560141,428.533706 114.425044,430.969263 127.613785,428.626195 C139.8819,426.447553 148.508889,418.87369 153.484406,405.925158 C158.480611,392.976626 160.973542,372.382294 160.973542,344.142163 L160.973542,299.500557 C151.45696,317.124948 134.513307,328.254519 110.121894,332.878995 C97.9985965,335.191233 87.1890009,335.324829 77.6827633,333.269506 C68.1661815,331.245014 60.356378,327.565986 54.2223204,322.181041 C48.0779187,316.826926 43.0196486,309.756617 39.037166,300.970113 C35.0443393,292.193886 32.210053,282.605806 30.523963,272.195597 C28.837873,261.785389 28,250.19337 28,237.460647 C28,218.633892 29.8309076,201.369183 33.513411,185.697349 C37.1855702,170.004961 42.8748311,155.730746 50.539817,142.813044 C58.2151471,129.915895 68.5178813,119.166558 81.489396,110.565034 C94.4402225,101.984062 109.739162,96.1161161 127.375871,92.9920259 C144.547094,89.9501485 159.628808,90.3920429 172.589978,94.3177089 C185.540805,98.2330983 195.94698,105.118429 203.767128,114.963424 C211.597619,124.818695 217.411009,136.688183 221.23833,150.582163 C225.075995,164.476144 227,180.38434 227,198.296476 L227,327.422114 C227,343.063118 226.079374,357.40927 224.238122,370.501674 C222.407215,383.573525 219.138476,396.337078 214.462938,408.782056 C209.777056,421.216758 203.767128,432.089414 196.402121,441.348642 C189.037114,450.628423 179.4895,458.633904 167.748934,465.344532 C156.039401,472.044884 142.488616,476.772126 127.158644,479.485151" id="Fill-4" fill="#FFFFFF"></path>
                <path d="M151.841356,274.795306 C166.105884,272.267316 177.14305,263.008296 184.973542,247.049074 L184.973542,190.117915 C184.973542,150.810752 173.77087,133.125097 151.375871,137.102057 C144.786672,138.263289 139.221541,140.924872 134.701164,145.066254 C130.180788,149.187083 126.725855,154.633566 124.357054,161.35432 C121.95722,168.075074 120.322851,175.21716 119.391881,182.718919 C118.481599,190.251508 118.026458,198.945327 118.026458,208.831207 L118.026458,221.460881 C118.026458,224.256057 118.129899,228.150806 118.367814,233.134852 C118.595384,238.088068 118.895363,241.838948 119.298784,244.356661 C119.671172,246.853822 120.240098,250.018948 121.015906,253.831486 C121.78137,257.644024 122.701996,260.511135 123.777784,262.463647 C124.853571,264.395607 126.26037,266.491989 128.029213,268.76307 C129.787712,271.03415 131.794469,272.575608 134.008109,273.397718 C136.232093,274.209552 138.838809,274.815859 141.828257,275.185809 C144.828049,275.576311 148.158852,275.442718 151.841356,274.795306 M151.158644,473.489162 C87.9561285,484.690419 55.9100738,458.413709 54.9791039,394.659032 L54.9791039,390.116871 L118.254028,378.895061 C118.254028,396.05662 120.519389,408.21358 125.039765,415.386495 C129.560141,422.538857 138.425044,424.964084 151.613785,422.621068 C163.8819,420.463028 172.508889,412.868781 177.484406,399.930816 C182.480611,386.982574 184.973542,366.388703 184.973542,338.138928 L184.973542,293.508599 C175.45696,311.122318 158.513307,322.251641 134.121894,326.876013 C121.998597,329.188199 111.189001,329.321792 101.682763,327.287068 C92.1661815,325.252344 84.356378,321.573399 78.2223204,316.178299 C72.0779187,310.824303 67.0196486,303.754152 63.037166,294.978121 C59.0443393,286.202091 56.210053,276.614226 54.523963,266.193974 C52.837873,255.794275 52,244.202516 52,231.459801 C52,212.633469 53.8309076,195.379422 57.513411,179.707939 C61.1855702,164.005627 66.8748311,149.731731 74.539817,136.834871 C82.2151471,123.917459 92.5178813,113.168363 105.489396,104.577307 C118.440222,95.9965274 133.739162,90.128713 151.375871,87.0046927 C168.547094,83.9423307 183.628808,84.3944916 196.589978,88.3200697 C209.540805,92.2559242 219.94698,99.1205477 227.767128,108.975598 C235.597619,118.820373 241.411009,130.689595 245.23833,144.583264 C249.075995,158.487209 251,174.384773 251,192.306784 L251,321.42953 C251,337.070184 250.079374,351.416014 248.238122,364.497849 C246.407215,377.579684 243.138476,390.332675 238.462938,402.777374 C233.777056,415.211797 227.767128,426.084209 220.402121,435.34323 C213.037114,444.63308 203.4895,452.638382 191.748934,459.328307 C180.039401,466.038784 166.488616,470.755644 151.158644,473.489162" id="Fill-6" fill="#FF0A6B"></path>
                <path d="M298.359425,229.091635 C300.314426,228.754513 301.874267,228.458253 302.997353,228.192642 C304.130838,227.937246 305.264322,227.600123 306.387408,227.181274 C307.520892,226.752208 308.352808,226.323143 308.883154,225.853215 C309.403101,225.352639 309.891851,224.698825 310.349404,223.891774 C310.796559,223.074507 311.098128,222.13465 311.222915,221.082418 C311.358102,220.040403 311.420495,218.763423 311.420495,217.251479 L311.420495,163.434442 C311.420495,160.134727 310.432596,158.132422 308.435999,157.42753 C306.429004,156.681773 303.070146,156.722637 298.359425,157.519472 L298.359425,229.091635 Z M277,247 L277,147.058454 L298.255436,143.319457 C305.045944,142.124204 310.619777,141.736002 315.00813,142.175283 C319.406882,142.62478 322.838533,143.993702 325.355077,146.302482 C327.861221,148.631693 329.597845,151.645365 330.554547,155.312851 C331.521649,159.010984 332,163.812428 332,169.778478 L332,202.530456 C332,206.095783 331.885612,209.211614 331.667234,211.888164 C331.438457,214.595361 331.0225,217.251479 330.388164,219.897381 C329.774627,222.553499 328.911514,224.841847 327.840424,226.782856 C326.769333,228.744297 325.386273,230.613795 323.691246,232.432215 C321.996219,234.240418 319.947627,235.803441 317.56627,237.121284 C315.164114,238.40848 312.366799,239.593517 309.132728,240.655964 C305.919455,241.677548 302.207033,242.576542 298.026659,243.312082 L277,247 Z" id="Fill-8" fill="#FFFFFF"></path>
                <path d="M377.308619,194.666762 L387.640335,192.807314 L382.586778,156.62981 L377.308619,194.666762 Z M352,233 L373.592469,129.197842 L391.468787,126 L413,222.108947 L393.071632,225.674592 L388.977741,205.026544 L375.920167,207.355963 L372.03046,229.424138 L352,233 Z" id="Fill-10" fill="#FFFFFF"></path>
                <path d="M443.724933,216 L443.724933,182.898986 L425,119.225081 L444,115.79625 L453.30134,158.139755 C454.452547,153.12445 456.174263,145.458198 458.4563,135.212646 C460.748525,124.946623 462.449866,117.311077 463.550134,112.295772 L482,109 L463.224129,179.408743 L463.224129,212.509757 L443.724933,216 Z" id="Fill-12" fill="#FFFFFF"></path>
                <path d="M500,177.84179 L520.934003,170.256644 C520.934003,172.277988 520.975725,174.054321 521.048739,175.61627 C521.121752,177.1578 521.309501,178.811627 521.643277,180.577752 C521.956192,182.343876 522.394273,183.762901 522.947089,184.855243 C523.489475,185.927168 524.261331,186.7745 525.262659,187.37682 C526.274417,187.999557 527.453063,188.193525 528.819458,187.958722 C532.887351,187.244105 534.931728,184.344803 534.931728,179.240397 C534.931728,172.226944 530.915987,165.979152 522.853214,160.486812 L516.448891,156.280782 C514.414944,154.963845 512.798217,153.851085 511.577849,152.952709 C510.357482,152.074752 508.938934,150.819068 507.290916,149.206076 C505.653328,147.603292 504.370377,146.010718 503.442063,144.418143 C502.513749,142.825569 501.721032,140.834851 501.06391,138.497033 C500.396359,136.11838 500.062583,133.54576 500.062583,130.768963 C500.062583,122.673376 502.691068,115.813055 507.948037,110.157374 C513.205007,104.532319 520.172577,100.969444 528.87161,99.4483315 C536.079082,98.1722302 542.233074,99.6218813 547.291864,103.776867 C552.361085,107.901227 554.895695,113.526282 554.895695,120.631614 L554.833112,121.366648 L554.833112,123.040893 L533.51318,129.635785 C533.51318,129.227433 533.544472,128.584278 533.607055,127.716529 C533.659207,126.838571 533.680068,126.123954 533.680068,125.56247 C533.680068,124.235324 533.596624,122.969432 533.408875,121.78521 C533.221126,120.590779 532.897781,119.426974 532.470131,118.283588 C532.03205,117.140201 531.364498,116.292869 530.457045,115.721176 C529.549592,115.149483 528.45439,115.006559 527.161009,115.220944 C524.908022,115.608879 523.197421,116.772684 522.060497,118.712358 C520.934003,120.662241 520.360326,122.806091 520.360326,125.174535 C520.360326,127.236715 520.683672,129.135554 521.351223,130.840425 C522.008344,132.535088 523.020102,134.035783 524.365636,135.383346 C525.71117,136.710491 526.941969,137.813043 528.068462,138.629748 C529.205386,139.477079 530.717808,140.487751 532.616158,141.651556 C534.504077,142.81536 535.849611,143.683109 536.642329,144.244594 C539.542006,146.245521 541.993173,148.195403 544.006258,150.043198 C546.008913,151.890993 547.896833,154.034843 549.680448,156.515584 C551.464062,158.986117 552.799166,161.732287 553.675327,164.815348 C554.561919,167.867782 555,171.257107 555,174.993532 C555,181.996776 552.454959,188.173107 547.354447,193.522524 C542.253935,198.861732 536.058221,202.179595 528.756875,203.455697 C524.03186,204.28261 519.828371,204.170314 516.167267,203.098388 C512.495733,202.036672 509.543903,200.239921 507.290916,197.708136 C505.04836,195.176351 503.306467,192.246422 502.10696,188.897932 C500.897023,185.56986 500.198179,181.884479 500,177.84179" id="Fill-14" fill="#FFFFFF"></path>
                <polygon id="Fill-16" fill="#FFFFFF" points="277 376 277 274.666765 297.677625 271 297.677625 358.266943 318 354.672684 318 368.759692"></polygon>
                <polygon id="Fill-18" fill="#FFFFFF" points="340 364 340 264.419671 383 257 383 270.831732 360.846889 274.648435 360.846889 301.772472 376.532092 299.065157 376.532092 313.222582 360.846889 315.929896 360.846889 346.5653 383 342.748597 383 356.590507"></polygon>
                <polygon id="Fill-20" fill="#FFFFFF" points="405 354 405 254.429849 448 247 448 260.831732 425.851997 264.648435 425.851997 291.772472 441.530507 289.065157 441.530507 303.242937 425.851997 305.940074 425.851997 350.397032"></polygon>
                <polygon id="Fill-22" fill="#FFFFFF" points="477.187889 342 477.187889 256.445322 462 259.08221 462 243.847998 513 235 513 250.234213 498.11883 252.809299 498.11883 338.353677"></polygon>
                <polygon id="Fill-24" fill="#FFFFFF" points="618 56.2029586 278 117 278 90.8073373 618 30"></polygon>
                <polygon id="Fill-26" fill="#FFFFFF" points="547 382.47732 278 431 278 404.533084 547 356"></polygon>
                <g id="Group-30" transform="translate(376.000000, 0.000000)">
                    <mask id="mask-4" fill="white">
                        <use xlink:href="#path-3"></use>
                    </mask>
                    <g id="Clip-29"></g>
                    <path d="M4.63436,50.694 C2.82266,50.694 1.216835,49.419 0.8668475,47.5932 C0.475685,45.543 1.84475375,43.554 3.934385,43.1766 L235.821691,0.1224 C237.93191,-0.1734 239.887722,1.1118 240.299472,3.1722 C240.690635,5.2224 239.311272,7.2114 237.231935,7.599 L5.334335,50.643 C5.09757875,50.6838 4.8608225,50.694 4.63436,50.694" id="Fill-28" fill="#FFFFFF" mask="url(#mask-4)"></path>
                </g>
                <path d="M435.835903,429 C434.011443,429 432.393137,427.650624 432.063292,425.738124 C431.681907,423.602498 433.063137,421.530622 435.155596,421.148122 L510.473825,407.059366 C512.566284,406.687491 514.565974,408.100616 514.937051,410.236242 C515.318435,412.403743 513.926898,414.454369 511.844746,414.847494 L436.51621,428.925625 C436.289441,428.968125 436.052364,429 435.835903,429" id="Fill-31" fill="#FFFFFF"></path>
            </g>
        </g>
    </g>
</svg>